<svg xmlns="http://www.w3.org/2000/svg" width="484" height="163" viewBox="0 0 484 163">
  <g fill="none" fill-rule="evenodd" transform="translate(1)">
    <g transform="translate(0 .21)">
      <g transform="translate(0 36)">
        <path stroke="#D8D8DC" stroke-linecap="round" stroke-width="2" d="M12.1972656,89.5 L456.947754,89.5"/>
        <g transform="translate(52)">
          <path stroke="#D8D8DC" stroke-width="2" d="M0,80.4315905 L0,7.05128205 C-6.76353751e-17,6.47067501 0.44771525,6 1,6 L53,6 C53.5522847,6 54,6.47067501 54,7.05128205 L54,89" transform="matrix(-1 0 0 1 54 0)"/>
          <rect width="6" height="6" x="39" stroke="#D8D8DC" stroke-width="2" rx="1" transform="matrix(-1 0 0 1 84 0)"/>
          <g stroke="#D8D8DC" stroke-width="2" transform="translate(9 14)">
            <rect width="36" height="12" rx="1"/>
            <path d="M0,6 L36,6"/>
          </g>
          <g stroke="#D8D8DC" stroke-width="2" transform="translate(9 33)">
            <rect width="36" height="12" rx="1"/>
            <path d="M0,6 L36,6"/>
          </g>
          <g stroke="#D8D8DC" stroke-width="2" transform="translate(9 52)">
            <rect width="36" height="12" rx="1"/>
            <path d="M0,6 L36,6"/>
          </g>
          <path stroke="#D8D8DC" stroke-width="2" d="M9,89 L9,72 C9,71.4477153 9.44771525,71 10,71 L10,71 L20,71 C20.5522847,71 21,71.4477153 21,72 L21,89" transform="matrix(-1 0 0 1 30 0)"/>
          <circle cx="13" cy="80" r="1" fill="#D8D8DC" transform="matrix(-1 0 0 1 26 0)"/>
          <path stroke="#D8D8DC" stroke-linecap="round" stroke-linejoin="round" stroke-width="2" d="M45.284593,88 C45.0989694,87.2856064 45,86.5347105 45,85.76 C45,80.9882598 48.7547029,77.12 53.3863636,77.12 C54.6240305,77.12 55.7990775,77.3962166 56.8565942,77.8920787 C58.6926275,74.3839773 62.2919918,72 66.4318182,72 C71.8395114,72 76.3250047,76.0678222 77.1626509,81.3953849 C77.8819861,81.1140324 78.6621694,80.96 79.4772727,80.96 C83.0796755,80.96 86,83.9686465 86,87.68 C86,87.7872723 85.9975603,87.8939575 85.9927349,88 L85.9927349,88" transform="matrix(-1 0 0 1 131 0)"/>
        </g>
        <path stroke="#D8D8DC" stroke-linecap="round" stroke-width="2" d="M466 89.5L482 89.5M0 89.5L5.98364258 89.5"/>
        <g transform="translate(342 14)">
          <polyline stroke="#D8D8DC" stroke-linecap="round" stroke-width="2" points="13.796 75 13.796 11.751 17.796 0"/>
          <circle cx="14" cy="14" r="3" fill="#D8D8DC"/>
          <g stroke="#D8D8DC" stroke-linecap="round" stroke-width="2" transform="rotate(19 -29.33 14.488)">
            <path d="M11,8 L23.2592515,0.0614596399" transform="matrix(-1 0 0 1 35 0)"/>
            <path d="M1.84741111e-13,8 L12.2592515,0.0614596399"/>
          </g>
        </g>
        <g transform="translate(376 14)">
          <polyline stroke="#D8D8DC" stroke-linecap="round" stroke-width="2" points="12.796 75 12.796 11.751 13 0"/>
          <circle cx="13" cy="14" r="3" fill="#D8D8DC"/>
          <g stroke="#D8D8DC" stroke-linecap="round" stroke-width="2" transform="rotate(19 -30.83 17.476)">
            <path d="M9.7407485,4.06367513 L22.6104093,0.06145964" transform="matrix(-1 0 0 1 32.351 0)"/>
            <path d="M0.796029249,11.5749685 L9.31373293,0.387027794"/>
          </g>
        </g>
      </g>
      <path stroke="#D8D8DC" stroke-linecap="round" stroke-linejoin="round" stroke-width="2" d="M361.284593,17 C361.098969,16.2856064 361,15.5347105 361,14.76 C361,9.98825976 364.754703,6.12 369.386364,6.12 C370.624031,6.12 371.799077,6.39621655 372.856594,6.8920787 C374.692628,3.38397732 378.291992,1 382.431818,1 C387.839511,1 392.325005,5.06782216 393.162651,10.3953849 C393.881986,10.1140324 394.662169,9.96 395.477273,9.96 C399.079676,9.96 402,12.9686465 402,16.68 C402,16.7872723 401.99756,16.8939575 401.992735,17 L401.992735,17" transform="matrix(-1 0 0 1 763 0)"/>
      <g stroke="#D8D8DC" stroke-linecap="round" stroke-width="2" transform="translate(406 106)">
        <ellipse cx="26.333" cy="13.294" rx="5.333" ry="5.294"/>
        <ellipse cx="5.333" cy="12.706" rx="5.333" ry="5.294"/>
        <path d="M5.33333333 12.7058824L11.7333333 4.23529412M5.33333333 12.7058824L16 12.7058824M20.2666667 5.29411765L16 12.7058824M10.6666667 1.05882353L16 12.7058824M19.2 1.05882353L25.8359375 12.7058824M11.7333333 4.23529412L20.2666667 4.23529412M19.2.529411765L22.3041667.529411765M8.53333333.529411765L13.2057292.529411765"/>
      </g>
    </g>
    <g transform="translate(155 29)">
      <g transform="translate(58 1)">
        <path fill="#FFF" stroke="#1F2145" stroke-linecap="round" stroke-linejoin="round" stroke-width="4" d="M28.777857,44.1834862 L37.222143,44.1834862 C53.1157146,44.1834862 66,57.0677717 66,72.9613432 L65.9999965,96.4197884 C65.9999965,100.755251 63.6614586,104.753597 59.8826838,106.878945 C53.8126744,110.292982 44.9449651,112 33.2795557,112 C21.4501797,112 12.4020555,110.244657 6.1351832,106.733972 L6.13518481,106.733969 C2.34638701,104.611494 5.31839266e-16,100.607578 0,96.2647806 L0,72.9613432 C-1.94640115e-15,57.0677717 12.8842854,44.1834862 28.777857,44.1834862 Z"/>
        <path fill="#D6D8E3" d="M14.4375,50.5920334 C16.8274689,56.6524787 23.0306625,59.6827014 33.047081,59.6827014 C43.0634995,59.6827014 49.634697,56.9090249 52.7606735,51.3616721 C51.7862193,50.6109213 50.8780009,49.9748237 50.0360184,49.4533794 C49.1940358,48.9319351 47.8978398,48.202827 46.1474304,47.266055 L38.7904587,48.4258565 L26.8545456,47.266055 L20.1524277,47.266055 L14.4375,50.5920334 Z"/>
        <ellipse cx="33" cy="24.661" fill="#FFF" stroke="#1F2145" stroke-linecap="round" stroke-linejoin="round" stroke-width="4" rx="24.75" ry="24.661"/>
      </g>
      <path fill="#FFF" stroke="#1F2145" stroke-linecap="round" stroke-linejoin="round" stroke-width="4" d="M28.7708494,45.2 L37.2291506,45.2 C53.118852,45.2 66,58.081148 66,73.9708494 L66.0000006,97.4210305 C66.0000006,101.75734 63.6605585,105.756329 59.8806281,107.881347 C53.8106724,111.293782 44.9436482,113 33.2795557,113 C21.4514269,113 12.4039635,111.245455 6.13716549,107.736364 L6.13716373,107.736367 C2.34725634,105.61421 5.31938806e-16,101.609677 0,97.2660666 L0,73.9708494 C-1.94592719e-15,58.081148 12.881148,45.2 28.7708494,45.2 Z"/>
      <path fill="#D6D8E3" d="M14.390419,51.4747403 C16.7803879,57.5337099 22.9835815,60.5631947 33,60.5631947 C43.0164185,60.5631947 49.587616,57.7901937 52.7135925,52.2441917 C51.7391383,51.4936237 50.8309199,50.857681 49.9889374,50.3363636 C49.1469548,49.8150463 47.8507588,49.0861157 46.1003494,48.1495719 L38.7433777,49.3090909 L26.8074646,48.1495719 L20.1053467,48.1495719 L14.390419,51.4747403 Z"/>
      <ellipse cx="33" cy="24.655" fill="#FFF" stroke="#1F2145" stroke-linecap="round" stroke-linejoin="round" stroke-width="4" rx="24.75" ry="24.655"/>
      <g transform="translate(96 33)">
        <g>
          <polyline fill="#55D262" stroke="#1F2145" stroke-linecap="round" stroke-linejoin="round" stroke-width="4" points="43.013 62.201 25.777 99 17.308 84.059 0 86.28 22.512 42.429"/>
          <path fill="#2B2D5C" d="M15.0249087,57.6130371 L16.0096895,67.8012347 L26.2157062,67.8012347 L33.3040688,78.3139997 L42.1087155,63.7953578 L34.7129414,60.9887695 L31.6410947,57.0125784 L24.3231534,57.0125784 L21.5064935,51.9655316 C20.8795319,50.7176324 20.5660511,50.0936828 20.5660511,50.0936828 C20.5660511,50.0936828 18.7190037,52.6001343 15.0249087,57.6130371 Z" opacity=".4"/>
          <polyline fill="#55D262" stroke="#1F2145" stroke-linecap="round" stroke-linejoin="round" stroke-width="4" points="48.987 62.524 66.223 99 74.692 84.19 92 86.391 70.345 42.429"/>
          <path fill="#2B2D5C" d="M56.7532468,76.2889056 L64.2312804,69.6669224 L74.4028764,68.0149013 L77.6623377,57.951416 L72.1667005,47.3730469 C68.8607616,48.3952271 67.2077922,49.1042114 67.2077922,49.5 C67.2077922,49.8957886 67.2077922,52.1388509 67.2077922,56.229187 L61.3317776,58.8416748 L57.5592478,60.0075484 L51.5224736,64.2038413 L56.7532468,76.2889056 Z" opacity=".4"/>
          <polygon fill="#55D262" stroke="#1F2145" stroke-linecap="round" stroke-linejoin="round" stroke-width="4" points="44.805 61.45 36.942 65.041 31.641 58.191 23.017 57.701 21.493 49.161 14.083 44.702 16.685 36.429 12.188 29.022 18.319 22.912 17.764 14.254 26.021 11.705 29.536 3.78 38.026 5.377 44.805 0 51.584 5.377 60.075 3.78 63.589 11.705 71.846 14.254 71.291 22.912 77.423 29.022 72.925 36.429 75.527 44.702 68.118 49.161 66.594 57.701 57.969 58.191 52.668 65.041"/>
          <polyline stroke="#1F2145" stroke-linecap="round" stroke-linejoin="round" stroke-width="4" points="34.916 34.905 43.255 43.414 55.968 21.416" transform="rotate(4 45.442 32.415)"/>
        </g>
      </g>
    </g>
  </g>
</svg>
