<svg xmlns="http://www.w3.org/2000/svg" width="18" height="18" viewBox="0 0 18 18">
  <path fill="#55D262" d="M351.556622,26 L345.50604,19.9494182 C344.83132,19.274698 344.83132,18.1807604 345.50604,17.5060402 C346.18076,16.8313199 347.274698,16.8313199 347.949418,17.5060402 L354,23.556622 L360.050582,17.5060402 C360.725302,16.8313199 361.81924,16.8313199 362.49396,17.5060402 C363.16868,18.1807604 363.16868,19.274698 362.49396,19.9494182 L356.443378,26 L362.49396,32.0505818 C363.16868,32.725302 363.16868,33.8192396 362.49396,34.4939598 C361.81924,35.1686801 360.725302,35.1686801 360.050582,34.4939598 L354,28.443378 L347.949418,34.4939598 C347.274698,35.1686801 346.18076,35.1686801 345.50604,34.4939598 C344.83132,33.8192396 344.83132,32.725302 345.50604,32.0505818 L351.556622,26 Z" transform="translate(-345 -17)"/>
</svg>
