<svg xmlns="http://www.w3.org/2000/svg" width="84" height="93" viewBox="0 0 84 93">
  <g fill="none" fill-rule="evenodd" transform="translate(2 2)">
    <path fill="#55D262" d="M13.3328912,81.8073722 C13.3328912,84.8083814 13.3328912,86.3088861 13.3328912,86.3088861 C13.3328912,86.3088861 13.734748,87.1944298 14.5384615,88.9655172 L16.014476,88.9655172 L80.0570292,88.9655172 L80.0570292,85.8977408 L80.0570292,5.72440761 L78.5980506,3.06777646 L68.8446581,3.06777646 L16.014476,3.06777646 L13.3328912,4.84863281 L13.3328912,11.6071188 L13.3328912,56.3409213 L13.3328912,81.8073722 Z"/>
    <path stroke="#1F2145" stroke-linecap="round" stroke-linejoin="round" stroke-width="3" d="M13.5,56.3765932 L13.5,5.76007943 C13.5,4.29286256 14.7005864,3.10344828 16.1815847,3.10344828 C19.105434,3.10344828 23.1245762,3.10344828 24.5321148,3.10344828 M69.0117669,3.10344828 C70.4956198,3.10344828 74.5748474,3.10344828 77.5425532,3.10344828 C79.0235515,3.10344828 80.2241379,4.29286256 80.2241379,5.76007943 L80.2241379,86.3445579 C80.2241379,87.8117748 79.0235515,89.0011891 77.5425532,89.0011891 L16.1815847,89.0011891 C14.7005864,89.0011891 13.5,87.8117748 13.5,86.3445579 L13.5,79.5957194"/>
    <path fill="#2B2D5C" d="M14.5384615,84.863258 L62.9303636,84.863258 C68.8149234,81.9709084 72.7612125,63.2273491 74.7692308,28.6325803 C71.9552154,48.0080125 70.5482077,57.6957286 70.5482077,57.6957286 C67.8142463,65.231749 66.4472655,68.9997592 66.4472655,68.9997592 C63.3154605,74.4758613 61.749558,77.2139124 61.749558,77.2139124 C59.2345318,79.506661 57.9770187,80.6530353 57.9770187,80.6530353 L14.5384615,80.831099 L14.5384615,84.863258 Z" opacity=".4"/>
    <path fill="#FFF" d="M0.799635667,79.5600476 L58.2293983,78.9015356 C69.6991248,67.0249718 74.9235464,43.4513724 73.902663,8.18073722 L18.9002028,8.18544585 C18.6258768,23.8074151 17.4603119,37.4333244 15.4035081,49.0631735 C13.3467043,60.6930226 8.47874681,70.8586473 0.799635667,79.5600476 Z"/>
    <rect width="46.731" height="13.448" x="22.846" y="4.138" fill="#D6D8E3" rx="4.5"/>
    <rect width="43.615" height="12.414" x="24.923" fill="#FFF" stroke="#1F2145" stroke-linecap="round" stroke-linejoin="round" stroke-width="3" rx="2.592"/>
    <path fill="#D6D8E3" d="M3.62143179,77.6508621 C48.8249324,82.459126 72.2520095,59.3024178 73.902663,8.18073722 L75.2418119,11.5672144 L73.902663,32.7922953 L70.0069111,54.8275862 L68.2400531,65.2188847 L58.8617037,77.6508621 L56.0769231,79.5600476 L0.799635667,79.5600476 L3.62143179,77.6508621 Z"/>
    <path stroke="#1F2145" stroke-linecap="round" stroke-linejoin="round" stroke-width="3" d="M24.6366048,8.18073722 L18.891429,8.18073722 C17.8386932,47.6138947 11.5415502,71.4069981 4.54747351e-13,79.5600476"/>
    <path stroke="#1F2145" stroke-linecap="round" stroke-linejoin="round" stroke-width="3" d="M69.0763659,8.18073722 C72.983015,8.18073722 74.9363395,8.18073722 74.9363395,8.18073722 C74.9363395,8.18073722 74.948081,67.2860574 57.4981892,79.5600476 L4.54747351e-13,79.5600476"/>
    <path stroke="#1F2145" stroke-linecap="round" stroke-linejoin="round" stroke-width="3" d="M27 28.5079722C28.3580787 27.7138639 29.4492353 26.7592992 31.0742361 26.1256473 41.0168321 22.248637 34.9453344 28.2514338 38.9915062 28.6706539 42.9904708 29.0849829 44.9727465 25.9849475 48.8442998 25.6696578 52.7302875 25.3531925 50.4625205 28.4645005 53.4526538 28.6311855 55.1046954 28.7232787 57.9304339 27.0068871 61.2692308 26.7681404M28.0384615 44.0252136C29.1424832 43.2311053 30.0295162 42.2765405 31.3505266 41.6428887 39.4331522 37.7658784 34.4974551 43.7686752 37.7867058 44.1878953 41.0375805 44.6022243 42.6490301 41.5021889 45.7963284 41.1868991 48.9553609 40.8704339 47.1118271 43.9817419 49.5425934 44.1484269 50.8855862 44.24052 53.1827112 42.5241285 55.8969163 42.2853817M23.8846154 58.5079722C24.9886371 57.7138639 25.87567 56.7592992 27.1966804 56.1256473 35.279306 52.248637 30.3436089 58.2514338 33.6328596 58.6706539 36.8837344 59.0849829 38.4951839 55.9849475 41.6424823 55.6696578 44.8015147 55.3531925 42.957981 58.4645005 45.3887473 58.6311855 46.73174 58.7232787 49.028865 57.0068871 51.7430702 56.7681404"/>
  </g>
</svg>
