<svg xmlns="http://www.w3.org/2000/svg" width="104" height="93" viewBox="0 0 104 93">
  <g fill="none" fill-rule="evenodd" transform="translate(1 2)">
    <g transform="translate(18.266)">
      <path fill="#55D262" stroke="#1F2145" stroke-linecap="round" stroke-linejoin="round" stroke-width="3" d="M71.7495649,37.2248223 C67.9287865,21.2763765 53.5392726,9.41860465 36.3717884,9.41860465 C28.7260449,9.41860465 21.6313042,11.7705608 15.7757735,15.7883565 C13.0905675,17.6308212 10.6659575,19.8235985 8.56831058,22.300523 C3.22230712,28.6131424 0,36.7713589 0,45.6798993 C0,65.7064593 16.2842043,81.9411939 36.3717884,81.9411939 C48.8039384,81.9411939 59.7792655,75.7227423 66.3390837,66.2355369"/>
      <path stroke="#1F2145" stroke-linecap="round" stroke-linejoin="round" stroke-width="2.1" d="M36.5112613 45.8536934L36.5112613 27.195971M36.5112613 76.7314895L36.5112613 72.8514096M36.5112613 17.8068858L36.5112613 13.9268058"/>
      <g stroke="#1F2145" stroke-linecap="round" stroke-linejoin="round" stroke-width="2.1" transform="translate(3.962 23.796)">
        <path d="M2.5472973,24.3609907 L2.5472973,19.8324621" transform="rotate(90 2.547 22.097)"/>
        <path d="M10.8411597,43.6258755 L10.8391706,39.2651777" transform="rotate(45 10.84 41.446)"/>
        <path d="M10.8411597,4.36169243 L10.8391706,0.000994575154" transform="scale(-1 1) rotate(45 0 -23.99)"/>
      </g>
      <path stroke="#1F2145" stroke-linecap="round" stroke-linejoin="round" stroke-width="2.1" d="M1.98213539,3.96517494 L1.98032707,0.000904159238" transform="rotate(45 1.277 81.528)"/>
      <path stroke="#1F2145" stroke-linecap="round" stroke-linejoin="round" stroke-width="2.1" d="M36.7942943,45.6099096 L48.9647147,35.1281292"/>
      <path fill="#1F2145" stroke="#1F2145" stroke-linecap="round" stroke-linejoin="round" stroke-width="2.7" d="M32.8318318,9.06532366 L32.8318318,3.43857104 C32.8318318,1.53950069 34.3524503,0 36.2282282,0 L36.2282282,0 L36.2282282,0 C38.1040062,0 39.6246246,1.53950069 39.6246246,3.43857104 L39.6246246,9.06532366"/>
      <path fill="#2B2D5C" d="M47.115815,72.3370503 C46.4193483,72.3370503 45.9177598,71.6676955 46.1124174,70.998046 L54.8194252,41.0447166 C54.9492969,40.5979398 55.358154,40.2906977 55.8228228,40.2906977 L62.3990885,40.2906977 C62.6689638,40.2906977 62.9283757,40.3952475 63.1230117,40.5824577 L68.019109,45.2917601 C68.2395709,45.503811 68.3562661,45.8018927 68.3384555,46.1074863 L66.989286,69.2564462 C66.9707123,69.5751332 66.8078997,69.8679033 66.5471335,70.0515263 L53.4059983,79.3050805 C52.6006976,79.8721467 51.5306415,79.1114714 51.7995902,78.1631265 L53.4518538,72.3370503 L47.115815,72.3370503 Z" opacity=".4"/>
      <polygon fill="#FFF" stroke="#1F2145" stroke-linecap="round" stroke-linejoin="round" stroke-width="3" points="7.589 0 25.122 0 17.854 20.441 27.171 20.441 6.489 50.992 11.054 28.307 0 28.307" transform="translate(56.04 37.961)"/>
    </g>
    <path stroke="#1F2145" stroke-linecap="round" stroke-linejoin="round" stroke-width="2" d="M23.3423599,13.1984891 L12.509009,13.1984891"/>
    <g stroke="#1F2145" stroke-linecap="round" stroke-linejoin="round" stroke-width="2" transform="translate(0 18.414)">
      <path d="M17.2796405.523255814L6.36036036.523255814M2.25762599.523255814L.49004786.523255814"/>
    </g>
  </g>
</svg>
