<svg xmlns="http://www.w3.org/2000/svg" width="148" height="19" viewBox="0 0 148 19">
  <g fill="none" fill-rule="evenodd">
    <polygon fill="#FFF" fill-rule="nonzero" points="0 4.273 0 .967 14.124 .967 14.124 4.273 9.229 4.273 9.229 18.822 4.869 18.822 4.869 4.273"/>
    <path fill="#FFF" fill-rule="nonzero" d="M20.7658887 19C18.6923894 19 16.9928253 18.3344556 15.6671454 17.0033467 14.3414655 15.6722379 13.6786355 13.9045179 13.6786355 11.7001339 13.6786355 9.4957498 14.3372166 7.74074727 15.6543986 6.43507363 16.9715805 5.12939999 18.6753935 4.47657296 20.7658887 4.47657296 22.8563839 4.47657296 24.5899393 5.12092171 25.9666068 6.40963855 27.3432744 7.69835539 28.0315978 9.48727102 28.0315978 11.7764391 28.0315978 12.2681863 27.9976066 12.7260131 27.929623 13.1499331L18.1400359 13.1499331C18.2250154 13.7773347 18.5054435 14.2902702 18.9813285 14.688755 19.4572136 15.0872398 19.9713318 15.2864793 20.5236984 15.2864793 21.076065 15.2864793 21.4882093 15.2313705 21.7601436 15.1211513 22.032078 15.0109321 22.2317767 14.9007145 22.359246 14.7904953 22.4867152 14.6802761 22.6524227 14.4979932 22.8563734 14.2436412L27.572711 14.2436412C27.1648095 15.6680125 26.3490187 16.8168185 25.1253142 17.6900937 23.9016097 18.5633689 22.4484824 19 20.7658887 19zM23.4937163 10.4283802C23.4257328 9.76706497 23.1368069 9.22869463 22.62693 8.81325301 22.1170531 8.3978114 21.5137079 8.19009371 20.8168761 8.19009371 20.1200444 8.19009371 19.5336948 8.3978114 19.0578097 8.81325301 18.5819246 9.22869463 18.2845009 9.76706497 18.1655296 10.4283802L23.4937163 10.4283802zM35.1953321 4.6291834L35.1953321 6.71485944C36.0961146 5.22266099 37.5322463 4.47657296 39.5037702 4.47657296 41.1353762 4.47657296 42.4567873 5.01918244 43.4680431 6.10441767 44.4792989 7.1896529 44.9849192 8.66487242 44.9849192 10.5301205L44.9849192 18.8219545 40.6509874 18.8219545 40.6509874 11.1151272C40.6509874 10.1994599 40.4087995 9.49152414 39.9244165 8.99129853 39.4400335 8.49107291 38.7729546 8.24096386 37.9231598 8.24096386 37.073365 8.24096386 36.4062861 8.49107291 35.9219031 8.99129853 35.43752 9.49152414 35.1953321 10.1994599 35.1953321 11.1151272L35.1953321 18.8219545 30.8359066 18.8219545 30.8359066 4.6291834 35.1953321 4.6291834zM49.5228007 16.9651941C48.2651044 15.6086501 47.6362657 13.8706041 47.6362657 11.751004 47.6362657 9.63140395 48.2651044 7.88911883 49.5228007 6.52409639 50.780497 5.15907394 52.3143536 4.47657296 54.1244165 4.47657296 55.9344794 4.47657296 57.3238731 5.14635653 58.2926391 6.48594378L58.2926391 0 62.6520646 0 62.6520646 18.8219545 58.2926391 18.8219545 58.2926391 16.7617135C57.2388936 18.253912 55.8282554 19 54.0606822 19 52.2931091 19 50.780497 18.3217382 49.5228007 16.9651941zM57.3493716 14.3199465C57.9782198 13.7095016 58.2926391 12.8447178 58.2926391 11.7255689 58.2926391 10.6064201 57.9782198 9.74587539 57.3493716 9.14390897 56.7205235 8.54194255 55.9982087 8.24096386 55.1824057 8.24096386 54.3666027 8.24096386 53.644288 8.54618169 53.0154399 9.15662651 52.3865917 9.76707133 52.0721724 10.6318552 52.0721724 11.751004 52.0721724 12.8701529 52.3865917 13.7306976 53.0154399 14.332664 53.644288 14.9346304 54.3666027 15.2356091 55.1824057 15.2356091 55.9982087 15.2356091 56.7205235 14.9303913 57.3493716 14.3199465zM72.5181329 19C70.4446336 19 68.7450695 18.3344556 67.4193896 17.0033467 66.0937097 15.6722379 65.4308797 13.9045179 65.4308797 11.7001339 65.4308797 9.4957498 66.0894608 7.74074727 67.4066427 6.43507363 68.7238247 5.12939999 70.4276377 4.47657296 72.5181329 4.47657296 74.608628 4.47657296 76.3421834 5.12092171 77.718851 6.40963855 79.0955186 7.69835539 79.783842 9.48727102 79.783842 11.7764391 79.783842 12.2681863 79.7498507 12.7260131 79.6818671 13.1499331L69.8922801 13.1499331C69.9772596 13.7773347 70.2576876 14.2902702 70.7335727 14.688755 71.2094578 15.0872398 71.7235759 15.2864793 72.2759425 15.2864793 72.8283092 15.2864793 73.2404535 15.2313705 73.5123878 15.1211513 73.7843221 15.0109321 73.9840209 14.9007145 74.1114901 14.7904953 74.2389593 14.6802761 74.4046668 14.4979932 74.6086176 14.2436412L79.3249551 14.2436412C78.9170536 15.6680125 78.1012629 16.8168185 76.8775583 17.6900937 75.6538538 18.5633689 74.2007265 19 72.5181329 19zM75.2459605 10.4283802C75.1779769 9.76706497 74.889051 9.22869463 74.3791741 8.81325301 73.8692973 8.3978114 73.265952 8.19009371 72.5691203 8.19009371 71.8722886 8.19009371 71.2859389 8.3978114 70.8100539 8.81325301 70.3341688 9.22869463 70.0367451 9.76706497 69.9177738 10.4283802L75.2459605 10.4283802zM86.9475763 4.6291834L86.9475763 7.27443106C87.9673301 5.409183 89.3269813 4.47657296 91.0265709 4.47657296L91.0265709 8.90227577 89.9558348 8.90227577C88.953077 8.90227577 88.2010199 9.13966742 87.6996409 9.61445783 87.198262 10.0892482 86.9475763 10.920119 86.9475763 12.107095L86.9475763 18.8219545 82.5881508 18.8219545 82.5881508 4.6291834 86.9475763 4.6291834z"/>
    <path fill="#55D262" d="M93.3974865.966532798L101.17307.966532798C102.991631.966532798 104.440509 1.407403 105.519749 2.28915663 106.598988 3.17091025 107.1386 4.2900423 107.1386 5.64658635 107.1386 7.66444561 105.957403 9.02944758 103.594973 9.7416332 104.801682 9.9112012 105.761935 10.4114193 106.475763 11.2423025 107.189591 12.0731858 107.546499 13.0481872 107.546499 14.167336 107.546499 15.5917073 107.023883 16.7235567 105.978636 17.5629183 104.933388 18.40228 103.476012 18.8219545 101.606463 18.8219545L93.3974865 18.8219545 93.3974865.966532798zM97.756912 4.27309237L97.756912 8.13922356 100.612208 8.13922356C101.241056 8.13922356 101.746677 7.97813637 102.129084 7.65595716 102.511492 7.33377795 102.702693 6.85475552 102.702693 6.2188755 102.702693 5.58299548 102.511492 5.09973392 102.129084 4.76907631 101.746677 4.43841869 101.241056 4.27309237 100.612208 4.27309237L97.756912 4.27309237zM97.756912 15.5153949L101.045601 15.5153949C101.640458 15.5153949 102.133331 15.3373512 102.524237 14.9812584 102.915143 14.6251656 103.110592 14.1334257 103.110592 13.5060241 103.110592 12.8786225 102.92364 12.3784044 102.549731 12.0053548 102.175821 11.6323051 101.691445 11.4457831 101.096589 11.4457831L97.756912 11.4457831 97.756912 15.5153949zM116.622262 19C114.548763 19 112.849199 18.3344556 111.523519 17.0033467 110.197839 15.6722379 109.535009 13.9045179 109.535009 11.7001339 109.535009 9.4957498 110.19359 7.74074727 111.510772 6.43507363 112.827954 5.12939999 114.531767 4.47657296 116.622262 4.47657296 118.712757 4.47657296 120.446313 5.12092171 121.82298 6.40963855 123.199648 7.69835539 123.887971 9.48727102 123.887971 11.7764391 123.887971 12.2681863 123.85398 12.7260131 123.785996 13.1499331L113.996409 13.1499331C114.081389 13.7773347 114.361817 14.2902702 114.837702 14.688755 115.313587 15.0872398 115.827705 15.2864793 116.380072 15.2864793 116.932438 15.2864793 117.344583 15.2313705 117.616517 15.1211513 117.888451 15.0109321 118.08815 14.9007145 118.215619 14.7904953 118.343089 14.6802761 118.508796 14.4979932 118.712747 14.2436412L123.429084 14.2436412C123.021183 15.6680125 122.205392 16.8168185 120.981688 17.6900937 119.757983 18.5633689 118.304856 19 116.622262 19zM119.35009 10.4283802C119.282106 9.76706497 118.99318 9.22869463 118.483303 8.81325301 117.973427 8.3978114 117.370081 8.19009371 116.67325 8.19009371 115.976418 8.19009371 115.390068 8.3978114 114.914183 8.81325301 114.438298 9.22869463 114.140874 9.76706497 114.021903 10.4283802L119.35009 10.4283802zM132.734291 19C130.660792 19 128.961227 18.3344556 127.635548 17.0033467 126.309868 15.6722379 125.647038 13.9045179 125.647038 11.7001339 125.647038 9.4957498 126.305619 7.74074727 127.622801 6.43507363 128.939983 5.12939999 130.643796 4.47657296 132.734291 4.47657296 134.824786 4.47657296 136.558341 5.12092171 137.935009 6.40963855 139.311677 7.69835539 140 9.48727102 140 11.7764391 140 12.2681863 139.966009 12.7260131 139.898025 13.1499331L130.108438 13.1499331C130.193418 13.7773347 130.473846 14.2902702 130.949731 14.688755 131.425616 15.0872398 131.939734 15.2864793 132.492101 15.2864793 133.044467 15.2864793 133.456611 15.2313705 133.728546 15.1211513 134.00048 15.0109321 134.200179 14.9007145 134.327648 14.7904953 134.455117 14.6802761 134.620825 14.4979932 134.824776 14.2436412L139.541113 14.2436412C139.133212 15.6680125 138.317421 16.8168185 137.093716 17.6900937 135.870012 18.5633689 134.416885 19 132.734291 19zM135.462118 10.4283802C135.394135 9.76706497 135.105209 9.22869463 134.595332 8.81325301 134.085455 8.3978114 133.48211 8.19009371 132.785278 8.19009371 132.088447 8.19009371 131.502097 8.3978114 131.026212 8.81325301 130.550327 9.22869463 130.252903 9.76706497 130.133932 10.4283802L135.462118 10.4283802z"/>
    <rect width="6" height="6" x="142" y="13" fill="#FFF" fill-rule="nonzero"/>
  </g>
</svg>
