<svg xmlns="http://www.w3.org/2000/svg" xmlns:xlink="http://www.w3.org/1999/xlink" width="70" height="103" viewBox="0 0 70 103">
  <defs>
    <path id="marteau-a" d="M7.21564736,0 L7.21564736,0 C10.0974779,-5.29383691e-16 12.4620988,2.28144411 12.5652503,5.16142802 L14.4581935,58.0122705 C14.5741596,61.2500348 12.043442,63.9687704 8.80567772,64.0847365 C8.73571405,64.0872423 8.66571113,64.0884956 8.5957026,64.0884956 L5.83559212,64.0884956 C2.5957517,64.0884956 -0.0306578817,61.462086 -0.0306578817,58.2222456 C-0.0306578817,58.152237 -0.0294046464,58.0822341 -0.026898778,58.0122705 L1.86604441,5.16142802 C1.96919595,2.28144411 4.33381677,5.29383691e-16 7.21564736,0 Z"/>
  </defs>
  <g fill="none" fill-rule="evenodd" transform="translate(-6 -1)">
    <path stroke="#1F2145" stroke-linecap="round" stroke-linejoin="round" stroke-width="3" d="M47.4437228,76.548155 C50.7684907,77.1975462 53.5590597,77.1975462 55.8154297,76.548155"/>
    <g transform="rotate(-30 55.704 13.958)">
      <g transform="translate(24.666 18.858)">
        <mask id="marteau-b" fill="#fff">
          <use xlink:href="#marteau-a"/>
        </mask>
        <use fill="#55D262" xlink:href="#marteau-a"/>
        <polygon fill="#2B2D5C" points=".621 12.91 12.858 7.085 11.565 .879 9.328 -.927 3.014 -.927" mask="url(#marteau-b)" opacity=".4"/>
        <path stroke="#1F2145" stroke-linecap="round" stroke-linejoin="round" stroke-width="1.805" d="M4.26309014,29.9980121 C2.48466331,36.1731269 13.1958618,30.2767316 8.06733102,28.0563273 C6.01140233,27.1662102 4.51068087,29.138319 4.26309014,29.9980121 Z" mask="url(#marteau-b)" transform="rotate(-86 6.766 30.282)"/>
        <path stroke="#1F2145" stroke-linecap="round" stroke-linejoin="round" stroke-width="2" d="M15.8941112,72.6652306 C15.7117962,72.3784854 4.17438623,58.623343 10.7427036,54.7737416 C15.0587119,52.2441879 16.5403915,61.5764519 19.5671177,64.2453295" mask="url(#marteau-b)"/>
        <path stroke="#1F2145" stroke-linecap="round" stroke-linejoin="round" stroke-width="2" d="M16.6359605,80.163623 C16.3376269,79.6857144 -2.76855272,55.0888664 8.72076844,50.6583953 C14.8029324,48.3130128 15.469837,55.9771484 20.4226617,60.4252779" mask="url(#marteau-b)"/>
        <path stroke="#1F2145" stroke-linecap="round" stroke-linejoin="round" stroke-width="3" d="M7.21564736,0 L7.21564736,0 C10.0974779,-5.29383691e-16 12.4620988,2.28144411 12.5652503,5.16142802 L14.4581935,58.0122705 C14.5741596,61.2500348 12.043442,63.9687704 8.80567772,64.0847365 C8.73571405,64.0872423 8.66571113,64.0884956 8.5957026,64.0884956 L5.83559212,64.0884956 C2.5957517,64.0884956 -0.0306578817,61.462086 -0.0306578817,58.2222456 C-0.0306578817,58.152237 -0.0294046464,58.0822341 -0.026898778,58.0122705 L1.86604441,5.16142802 C1.96919595,2.28144411 4.33381677,5.29383691e-16 7.21564736,0 Z"/>
      </g>
      <path stroke="#1F2145" stroke-linecap="round" stroke-linejoin="round" stroke-width="2" d="M38.2882962,33.4756803 C40.2514334,31.5408803 41.0088604,28.8654616 37.6255358,27.2482527 C35.480413,26.2228968 33.6992096,27.2626142 32.567342,28.5699346" transform="rotate(-133 36.265 30.154)"/>
      <g transform="translate(.366 .366)">
        <rect width="5" height="11" x="45.134" y="6.5" fill="#D6D8E3"/>
        <rect width="5" height="11" x="12.932" y="5.901" fill="#D6D8E3"/>
        <rect width="25.255" height="19.858" x="18.803" y="1.805" fill="#FFF" stroke="#1F2145" stroke-linecap="round" stroke-linejoin="round" stroke-width="3" rx="1"/>
        <path stroke="#1F2145" stroke-linecap="round" stroke-linejoin="round" stroke-width="3" d="M49.4695542 5.4159292L49.4695542 3.60784314C49.4695542 1.61528639 51.0848406-1.42322786e-12 53.0773974-1.42286183e-12 55.0699541-1.4224958e-12 56.6852405 1.61528639 56.6852405 3.60784314L56.6852405 19.8611834C56.6852405 21.8537402 55.0699541 23.4690265 53.0773974 23.4690265 51.0848406 23.4690265 49.4695542 21.8537402 49.4695542 19.8611834L49.4695542 18.0530973 44.0577895 18.0530973 44.0577895 5.4159292 49.4695542 5.4159292zM18.8028876 5.18806174C8.28118617 5.18806174 2.01355699 12.7101856-4.08562073e-13 27.7544334 3.89337597 20.9614927 10.0963186 17.5650223 18.6088277 17.5650223"/>
      </g>
    </g>
    <path stroke="#1F2145" stroke-linecap="round" stroke-width="3" d="M7.85765726 98.3240666C21.9096404 86.007063 31.6172187 75.0404612 36.9803922 65.4242611M25.7471028 102.164302C35.5682298 92.7647207 42.6198491 84.2260051 46.9019608 76.548155"/>
    <path fill="#FFF" stroke="#1F2145" stroke-linecap="round" stroke-linejoin="round" stroke-width="3" d="M51.2034532,44.4370943 L51.2034532,44.4370943 C53.1972779,44.4378593 54.8134011,46.0539825 54.8141662,48.0478073 L54.8183204,58.8748233 C54.8190846,60.8666712 53.2049924,62.4820024 51.2131446,62.4827667 C51.2122221,62.482767 51.2112996,62.482767 51.2103771,62.4827667 L51.2103771,62.4827667 C49.2165523,62.4820017 47.6004291,60.8658785 47.5996641,58.8720538 L47.5955099,48.0450377 C47.5947456,46.0531898 49.2088378,44.4378586 51.2006856,44.4370943 C51.2016081,44.437094 51.2025307,44.437094 51.2034532,44.4370943 Z" transform="rotate(47 51.207 53.46)"/>
    <path fill="#FFF" stroke="#1F2145" stroke-linecap="round" stroke-linejoin="round" stroke-width="3" d="M55.3882847,50.628601 L55.3882847,50.628601 C57.3821094,50.629366 58.9982327,52.2454892 58.9989977,54.239314 L59.0034981,65.9686136 C59.0042623,67.9604615 57.3901702,69.5757927 55.3983223,69.576557 C55.3973998,69.5765573 55.3964773,69.5765573 55.3955548,69.576557 L55.3955548,69.576557 C53.4017301,69.575792 51.7856068,67.9596688 51.7848418,65.9658441 L51.7803414,54.2365444 C51.7795772,52.2446965 53.3936693,50.6293653 55.3855172,50.628601 C55.3864397,50.6286007 55.3873622,50.6286007 55.3882847,50.628601 Z" transform="rotate(47 55.392 60.103)"/>
    <path fill="#FFF" stroke="#1F2145" stroke-linecap="round" stroke-linejoin="round" stroke-width="3" d="M60.8216852,58.7891123 L60.8216852,58.7891123 C62.8155123,58.7899601 64.4315726,60.4061481 64.4322628,62.3999753 L64.4349567,70.1813182 C64.4356463,72.173158 62.8215001,73.7884222 60.8296602,73.7891118 C60.8287329,73.7891121 60.8278055,73.7891121 60.8268781,73.7891117 L60.8268781,73.7891117 C58.833051,73.7882639 57.2169907,72.1720759 57.2163004,70.1782487 L57.2136066,62.3969058 C57.212917,60.405066 58.8270632,58.7898017 60.818903,58.7891122 C60.8198304,58.7891119 60.8207578,58.7891119 60.8216852,58.7891123 Z" transform="rotate(47 60.824 66.29)"/>
    <path stroke="#1F2145" stroke-linecap="round" stroke-linejoin="round" stroke-width="3" d="M37.2532042,64.7851745 C33.2319641,57.7630073 33.5326177,51.9512851 38.155165,47.3500078"/>
    <path fill="#FFF" stroke="#1F2145" stroke-linecap="round" stroke-linejoin="round" stroke-width="3" d="M47.3504262,42.5916999 C48.249077,43.6466666 48.6859823,45.0429323 48.6859823,46.1831461 L48.696829,52.7825 C48.696829,54.77659 47.0815427,56.3931194 45.0889859,56.3931194 C43.0964292,56.3931194 41.4811428,54.77659 41.4811428,52.7825 L41.4811428,45.561261" transform="rotate(-91 45.089 49.492)"/>
  </g>
</svg>
