<svg xmlns="http://www.w3.org/2000/svg" width="1127" height="557" viewBox="0 0 1127 557">
  <g fill="none" fill-rule="evenodd" transform="translate(1 1)">
    <g transform="translate(0 334)">
      <path stroke="#D8D8DC" stroke-linecap="round" stroke-width="2" d="M15.1972656,220.5 L1057,220.5"/>
      <g stroke="#D8D8DC" stroke-width="2" transform="translate(934 177)">
        <path d="M26.94988,14.6714465 C26.9830643,14.285378 27,13.8946668 27,13.5 C27,6.04415588 20.9558441,0 13.5,0 C6.04415588,0 0,6.04415588 0,13.5 C0,20.9558441 6.04415588,27 13.5,27 L13.5,27 C16.182444,27 18.6821594,26.217646 20.7834145,24.8686695"/>
        <path stroke-linecap="round" d="M13.5 12.4330418L13.5 42.87408M19 13L19 13.4285714C19 16.5055865 16.5375661 19 13.5 19L13.5 19C10.4624339 19 8 16.5055865 8 13.4285714L8 13"/>
        <g transform="translate(21 14)">
          <circle cx="10.5" cy="10.5" r="10.5"/>
          <path stroke-linecap="round" d="M10.5 9L10.5 28.87408M16 9L16 9.42857143C16 12.5055865 13.5375661 15 10.5 15L10.5 15C7.46243388 15 5 12.5055865 5 9.42857143L5 9"/>
        </g>
      </g>
      <g stroke="#D8D8DC" stroke-width="2" transform="translate(339 177)">
        <circle cx="13.5" cy="13.5" r="13.5"/>
        <path stroke-linecap="round" d="M13.5 12.4330418L13.5 42.87408M19 13L19 13.4285714C19 16.5055865 16.5375661 19 13.5 19L13.5 19C10.4624339 19 8 16.5055865 8 13.4285714L8 13"/>
      </g>
      <g stroke="#D8D8DC" stroke-width="2" transform="translate(86 182)">
        <circle cx="10.5" cy="10.5" r="10.5"/>
        <path stroke-linecap="round" d="M10.5 9L10.5 28.87408M16 9L16 9.42857143C16 12.5055865 13.5375661 15 10.5 15L10.5 15C7.46243388 15 5 12.5055865 5 9.42857143L5 9"/>
      </g>
      <path stroke="#D8D8DC" stroke-linecap="round" stroke-linejoin="round" stroke-width="2" d="M367.007541 220C367.00253 219.880631 367 219.760614 367 219.64 367 215.022899 370.708001 211.28 375.282051 211.28 377.049101 211.28 378.686898 211.838604 380.031588 212.790413 381.668775 208.804011 385.561267 206 390.102564 206 396.121052 206 401 210.924868 401 217 401 218.040024 400.857011 219.046336 400.589796 220L400.589796 220M87.0075406 220C87.0025304 219.880631 87 219.760614 87 219.64 87 215.022899 90.7080007 211.28 95.2820513 211.28 97.0491009 211.28 98.6868981 211.838604 100.031588 212.790413 101.668775 208.804011 105.561267 206 110.102564 206 116.121052 206 121 210.924868 121 217 121 218.040024 120.857011 219.046336 120.589796 220L120.589796 220"/>
      <g transform="translate(648 184)">
        <path stroke="#D8D8DC" stroke-width="2" d="M0,36 L0,7 C-6.76353751e-17,6.44771525 0.44771525,6 1,6 L59,6 C59.5522847,6 60,6.44771525 60,7 L60,36"/>
        <rect width="29" height="6" x="7" stroke="#D8D8DC" stroke-width="2" rx="1"/>
        <path fill="#D8D8DC" fill-rule="nonzero" d="M52,20 L52,16 L44,16 L44,20 L52,20 Z M52,22 L44,22 L44,26 L52,26 L52,22 Z M16,20 L16,16 L8,16 L8,20 L16,20 Z M16,22 L8,22 L8,26 L16,26 L16,22 Z M8,14 L16,14 C17.1045695,14 18,14.8954305 18,16 L18,26 C18,27.1045695 17.1045695,28 16,28 L8,28 C6.8954305,28 6,27.1045695 6,26 L6,16 C6,14.8954305 6.8954305,14 8,14 Z M44,14 L52,14 C53.1045695,14 54,14.8954305 54,16 L54,26 C54,27.1045695 53.1045695,28 52,28 L44,28 C42.8954305,28 42,27.1045695 42,26 L42,16 C42,14.8954305 42.8954305,14 44,14 Z"/>
        <path stroke="#D8D8DC" stroke-width="2" d="M24,37 L24,20 C24,19.4477153 24.4477153,19 25,19 L25,19 L35,19 C35.5522847,19 36,19.4477153 36,20 L36,37"/>
        <circle cx="32" cy="28" r="1" fill="#D8D8DC"/>
      </g>
      <g transform="translate(235 184)">
        <path stroke="#D8D8DC" stroke-width="2" d="M0,36 L0,7 C-6.76353751e-17,6.44771525 0.44771525,6 1,6 L59,6 C59.5522847,6 60,6.44771525 60,7 L60,36"/>
        <rect width="21" height="6" x="32" stroke="#D8D8DC" stroke-width="2" rx="1"/>
        <path fill="#D8D8DC" fill-rule="nonzero" d="M24,6 L24,2 L2,2 L2,6 L24,6 Z M24,8 L2,8 L2,12 L24,12 L24,8 Z M2,0 L24,0 C25.1045695,-2.22044605e-16 26,0.8954305 26,2 L26,12 C26,13.1045695 25.1045695,14 24,14 L2,14 C0.8954305,14 1.11022302e-16,13.1045695 0,12 L0,2 C-2.22044605e-16,0.8954305 0.8954305,2.22044605e-16 2,0 Z" transform="translate(7 14)"/>
        <g transform="translate(41 19)">
          <path stroke="#D8D8DC" stroke-width="2" d="M0,18 L0,1 C0,0.44771525 0.44771525,0 1,0 L1,0 L11,0 C11.5522847,0 12,0.44771525 12,1 L12,18"/>
          <circle cx="8" cy="9" r="1" fill="#D8D8DC"/>
        </g>
      </g>
      <g transform="translate(867 184)">
        <path stroke="#D8D8DC" stroke-width="2" d="M0,25.565918 L0,7 C-6.76353751e-17,6.44771525 0.44771525,6 1,6 L59,6 C59.5522847,6 60,6.44771525 60,7 L60,36"/>
        <rect width="21" height="6" x="32" stroke="#D8D8DC" stroke-width="2" rx="1"/>
        <path fill="#D8D8DC" fill-rule="nonzero" d="M24,6 L24,2 L2,2 L2,6 L24,6 Z M24,8 L2,8 L2,12 L24,12 L24,8 Z M2,0 L24,0 C25.1045695,-2.22044605e-16 26,0.8954305 26,2 L26,12 C26,13.1045695 25.1045695,14 24,14 L2,14 C0.8954305,14 1.11022302e-16,13.1045695 0,12 L0,2 C-2.22044605e-16,0.8954305 0.8954305,2.22044605e-16 2,0 Z" transform="translate(28 14)"/>
        <g transform="translate(11 19)">
          <path stroke="#D8D8DC" stroke-width="2" d="M0,18 L0,1 C0,0.44771525 0.44771525,0 1,0 L1,0 L11,0 C11.5522847,0 12,0.44771525 12,1 L12,18"/>
          <circle cx="8" cy="9" r="1" fill="#D8D8DC"/>
        </g>
      </g>
      <g transform="translate(397 166)">
        <path stroke="#D8D8DC" stroke-width="2" d="M4.4408921e-16,42.3852539 L0,7 C-6.76353751e-17,6.44771525 0.44771525,6 1,6 L59,6 C59.5522847,6 60,6.44771525 60,7 L60,54"/>
        <rect width="28" height="6" x="7" stroke="#D8D8DC" stroke-width="2" rx="1"/>
        <path fill="#D8D8DC" fill-rule="nonzero" d="M46,6 L46,2 L38,2 L38,6 L46,6 Z M46,8 L38,8 L38,12 L46,12 L46,8 Z M28,6 L28,2 L20,2 L20,6 L28,6 Z M28,8 L20,8 L20,12 L28,12 L28,8 Z M10,6 L10,2 L2,2 L2,6 L10,6 Z M10,8 L2,8 L2,12 L10,12 L10,8 Z M46,25 L46,21 L38,21 L38,25 L46,25 Z M46,27 L38,27 L38,31 L46,31 L46,27 Z M10,25 L10,21 L2,21 L2,25 L10,25 Z M10,27 L2,27 L2,31 L10,31 L10,27 Z M2,19 L10,19 C11.1045695,19 12,19.8954305 12,21 L12,31 C12,32.1045695 11.1045695,33 10,33 L2,33 C0.8954305,33 1.11022302e-16,32.1045695 0,31 L0,21 C-2.22044605e-16,19.8954305 0.8954305,19 2,19 Z M38,19 L46,19 C47.1045695,19 48,19.8954305 48,21 L48,31 C48,32.1045695 47.1045695,33 46,33 L38,33 C36.8954305,33 36,32.1045695 36,31 L36,21 C36,19.8954305 36.8954305,19 38,19 Z M2,0 L10,0 C11.1045695,-2.22044605e-16 12,0.8954305 12,2 L12,12 C12,13.1045695 11.1045695,14 10,14 L2,14 C0.8954305,14 1.11022302e-16,13.1045695 0,12 L0,2 C-2.22044605e-16,0.8954305 0.8954305,2.22044605e-16 2,0 Z M20,0 L28,0 C29.1045695,-2.22044605e-16 30,0.8954305 30,2 L30,12 C30,13.1045695 29.1045695,14 28,14 L20,14 C18.8954305,14 18,13.1045695 18,12 L18,2 C18,0.8954305 18.8954305,2.22044605e-16 20,0 Z M38,0 L46,0 C47.1045695,-2.22044605e-16 48,0.8954305 48,2 L48,12 C48,13.1045695 47.1045695,14 46,14 L38,14 C36.8954305,14 36,13.1045695 36,12 L36,2 C36,0.8954305 36.8954305,2.22044605e-16 38,0 Z" transform="translate(6 13)"/>
        <path stroke="#D8D8DC" stroke-width="2" d="M24,55 L24,38 C24,37.4477153 24.4477153,37 25,37 L25,37 L35,37 C35.5522847,37 36,37.4477153 36,38 L36,55"/>
        <circle cx="32" cy="46" r="1" fill="#D8D8DC"/>
      </g>
      <g transform="translate(544 136)">
        <g transform="translate(32)">
          <path stroke="#D8D8DC" stroke-width="2" d="M0,76.8007812 L0,7 C-6.76353751e-17,6.44771525 0.44771525,6 1,6 L53,6 C53.5522847,6 54,6.44771525 54,7 L54,84"/>
          <rect width="6" height="6" x="9" stroke="#D8D8DC" stroke-width="2" rx="1"/>
          <g stroke="#D8D8DC" stroke-width="2" transform="rotate(90 2.5 18.5)">
            <rect width="10" height="12" rx="1"/>
            <path d="M0,6 L10,6"/>
          </g>
          <g stroke="#D8D8DC" stroke-width="2" transform="rotate(90 14.5 30.5)">
            <rect width="10" height="12" rx="1"/>
            <path d="M0,6 L10,6"/>
          </g>
          <g stroke="#D8D8DC" stroke-width="2" transform="rotate(90 -6 27)">
            <rect width="10" height="12" rx="1"/>
            <path d="M0,6 L10,6"/>
          </g>
          <g stroke="#D8D8DC" stroke-width="2" transform="rotate(90 6 39)">
            <rect width="10" height="12" rx="1"/>
            <path d="M0,6 L10,6"/>
          </g>
          <g stroke="#D8D8DC" stroke-width="2" transform="rotate(90 -14.5 35.5)">
            <rect width="10" height="12" rx="1"/>
            <path d="M0,6 L10,6"/>
          </g>
          <g stroke="#D8D8DC" stroke-width="2" transform="rotate(90 -2.5 47.5)">
            <rect width="10" height="12" rx="1"/>
            <path d="M0,6 L10,6"/>
          </g>
          <path stroke="#D8D8DC" stroke-width="2" d="M33,85 L33,68 C33,67.4477153 33.4477153,67 34,67 L34,67 L44,67 C44.5522847,67 45,67.4477153 45,68 L45,85"/>
          <circle cx="41" cy="76" r="1" fill="#D8D8DC"/>
        </g>
        <path stroke="#D8D8DC" stroke-linecap="round" stroke-linejoin="round" stroke-width="2" d="M0.284593005,84 C0.0989693905,83.2856064 0,82.5347105 0,81.76 C0,76.9882598 3.75470289,73.12 8.38636364,73.12 C9.62403053,73.12 10.7990775,73.3962166 11.8565942,73.8920787 C13.6926275,70.3839773 17.2919918,68 21.4318182,68 C26.8395114,68 31.3250047,72.0678222 32.1626509,77.3953849 C32.8819861,77.1140324 33.6621694,76.96 34.4772727,76.96 C38.0796755,76.96 41,79.9686465 41,83.68 C41,83.7872723 40.9975603,83.8939575 40.9927349,84 L40.9927349,84"/>
      </g>
      <g transform="translate(117 132)">
        <path stroke="#D8D8DC" stroke-width="2" d="M0,80.4315905 L0,7.05128205 C-6.76353751e-17,6.47067501 0.44771525,6 1,6 L53,6 C53.5522847,6 54,6.47067501 54,7.05128205 L54,76.6401367" transform="matrix(-1 0 0 1 54 0)"/>
        <rect width="6" height="6" x="39" stroke="#D8D8DC" stroke-width="2" rx="1" transform="matrix(-1 0 0 1 84 0)"/>
        <path fill="#D8D8DC" fill-rule="nonzero" d="M36,44 L36,40 L2,40 L2,44 L36,44 Z M36,46 L2,46 L2,50 L36,50 L36,46 Z M36,25 L36,21 L2,21 L2,25 L36,25 Z M36,27 L2,27 L2,31 L36,31 L36,27 Z M36,6 L36,2 L2,2 L2,6 L36,6 Z M36,8 L2,8 L2,12 L36,12 L36,8 Z M2,0 L36,0 C37.1045695,-2.22044605e-16 38,0.8954305 38,2 L38,12 C38,13.1045695 37.1045695,14 36,14 L2,14 C0.8954305,14 1.11022302e-16,13.1045695 0,12 L0,2 C-2.22044605e-16,0.8954305 0.8954305,2.22044605e-16 2,0 Z M2,19 L36,19 C37.1045695,19 38,19.8954305 38,21 L38,31 C38,32.1045695 37.1045695,33 36,33 L2,33 C0.8954305,33 1.11022302e-16,32.1045695 0,31 L0,21 C-2.22044605e-16,19.8954305 0.8954305,19 2,19 Z M2,38 L36,38 C37.1045695,38 38,38.8954305 38,40 L38,50 C38,51.1045695 37.1045695,52 36,52 L2,52 C0.8954305,52 1.11022302e-16,51.1045695 0,50 L0,40 C-2.22044605e-16,38.8954305 0.8954305,38 2,38 Z" transform="translate(8 13)"/>
        <path stroke="#D8D8DC" stroke-width="2" d="M9,89 L9,72 C9,71.4477153 9.44771525,71 10,71 L10,71 L20,71 C20.5522847,71 21,71.4477153 21,72 L21,89" transform="matrix(-1 0 0 1 30 0)"/>
        <circle cx="13" cy="80" r="1" fill="#D8D8DC" transform="matrix(-1 0 0 1 26 0)"/>
        <path stroke="#D8D8DC" stroke-linecap="round" stroke-linejoin="round" stroke-width="2" d="M45.284593,88 C45.0989694,87.2856064 45,86.5347105 45,85.76 C45,80.9882598 48.7547029,77.12 53.3863636,77.12 C54.6240305,77.12 55.7990775,77.3962166 56.8565942,77.8920787 C58.6926275,74.3839773 62.2919918,72 66.4318182,72 C71.8395114,72 76.3250047,76.0678222 77.1626509,81.3953849 C77.8819861,81.1140324 78.6621694,80.96 79.4772727,80.96 C83.0796755,80.96 86,83.9686465 86,87.68 C86,87.7872723 85.9975603,87.8939575 85.9927349,88 L85.9927349,88" transform="matrix(-1 0 0 1 131 0)"/>
        <g transform="translate(89 62)">
          <path stroke="#D8D8DC" stroke-linecap="round" stroke-width="2" d="M2.8125,7.41928563 L2.8125,6.10606061 C2.8125,2.73377645 5.54076481,0 8.90625,0 L8.90625,0 L8.90625,0 C12.2717352,0 15,2.73377645 15,6.10606061 L15,24.8939394"/>
          <path fill="#D8D8DC" d="M0,8.45454545 L0,8.45454545 C0,6.89810661 1.25919914,5.63636364 2.8125,5.63636364 L2.8125,5.63636364 L2.8125,5.63636364 C4.36580086,5.63636364 5.625,6.89810661 5.625,8.45454545 L5.625,8.45454545"/>
        </g>
      </g>
      <g transform="translate(787 132)">
        <path stroke="#D8D8DC" stroke-width="2" d="M0,80.4315905 L0,7.05128205 C-6.76353751e-17,6.47067501 0.44771525,6 1,6 L53,6 C53.5522847,6 54,6.47067501 54,7.05128205 L54,88" transform="matrix(-1 0 0 1 54 0)"/>
        <rect width="6" height="6" x="39" stroke="#D8D8DC" stroke-width="2" rx="1" transform="matrix(-1 0 0 1 84 0)"/>
        <path fill="#D8D8DC" fill-rule="nonzero" d="M36,44 L36,40 L2,40 L2,44 L36,44 Z M36,46 L2,46 L2,50 L36,50 L36,46 Z M36,25 L36,21 L2,21 L2,25 L36,25 Z M36,27 L2,27 L2,31 L36,31 L36,27 Z M36,6 L36,2 L2,2 L2,6 L36,6 Z M36,8 L2,8 L2,12 L36,12 L36,8 Z M2,0 L36,0 C37.1045695,-2.22044605e-16 38,0.8954305 38,2 L38,12 C38,13.1045695 37.1045695,14 36,14 L2,14 C0.8954305,14 1.11022302e-16,13.1045695 0,12 L0,2 C-2.22044605e-16,0.8954305 0.8954305,2.22044605e-16 2,0 Z M2,19 L36,19 C37.1045695,19 38,19.8954305 38,21 L38,31 C38,32.1045695 37.1045695,33 36,33 L2,33 C0.8954305,33 1.11022302e-16,32.1045695 0,31 L0,21 C-2.22044605e-16,19.8954305 0.8954305,19 2,19 Z M2,38 L36,38 C37.1045695,38 38,38.8954305 38,40 L38,50 C38,51.1045695 37.1045695,52 36,52 L2,52 C0.8954305,52 1.11022302e-16,51.1045695 0,50 L0,40 C-2.22044605e-16,38.8954305 0.8954305,38 2,38 Z" transform="translate(8 13)"/>
        <path stroke="#D8D8DC" stroke-width="2" d="M9,89 L9,72 C9,71.4477153 9.44771525,71 10,71 L10,71 L20,71 C20.5522847,71 21,71.4477153 21,72 L21,89" transform="matrix(-1 0 0 1 30 0)"/>
        <circle cx="13" cy="80" r="1" fill="#D8D8DC" transform="matrix(-1 0 0 1 26 0)"/>
        <path stroke="#D8D8DC" stroke-linecap="round" stroke-linejoin="round" stroke-width="2" d="M45.284593,88 C45.0989694,87.2856064 45,86.5347105 45,85.76 C45,80.9882598 48.7547029,77.12 53.3863636,77.12 C54.6240305,77.12 55.7990775,77.3962166 56.8565942,77.8920787 C58.6926275,74.3839773 62.2919918,72 66.4318182,72 C71.8395114,72 76.3250047,76.0678222 77.1626509,81.3953849 C77.8819861,81.1140324 78.6621694,80.96 79.4772727,80.96 C83.0796755,80.96 86,83.9686465 86,87.68 C86,87.7872723 85.9975603,87.8939575 85.9927349,88 L85.9927349,88" transform="matrix(-1 0 0 1 131 0)"/>
      </g>
      <g transform="translate(494 120)">
        <path stroke="#D8D8DC" stroke-width="2" d="M0,100 L0,7 C-6.76353751e-17,6.44771525 0.44771525,6 1,6 L53,6 C53.5522847,6 54,6.44771525 54,7 L54,90.2880859"/>
        <rect width="6" height="6" x="39" stroke="#D8D8DC" stroke-width="2" rx="1"/>
        <g stroke="#D8D8DC" stroke-width="2" transform="rotate(90 -5.5 26.5)">
          <rect width="10" height="12" rx="1"/>
          <path d="M0,6 L10,6"/>
        </g>
        <g stroke="#D8D8DC" stroke-width="2" transform="rotate(90 6.5 38.5)">
          <rect width="10" height="12" rx="1"/>
          <path d="M0,6 L10,6"/>
        </g>
        <g stroke="#D8D8DC" stroke-width="2" transform="rotate(90 3 18)">
          <rect width="10" height="12" rx="1"/>
          <path d="M0,6 L10,6"/>
        </g>
        <g stroke="#D8D8DC" stroke-width="2" transform="rotate(90 15 30)">
          <rect width="10" height="12" rx="1"/>
          <path d="M0,6 L10,6"/>
        </g>
        <g stroke="#D8D8DC" stroke-width="2" transform="rotate(90 -14 35)">
          <rect width="10" height="12" rx="1"/>
          <path d="M0,6 L10,6"/>
        </g>
        <g stroke="#D8D8DC" stroke-width="2" transform="rotate(90 -2 47)">
          <rect width="10" height="12" rx="1"/>
          <path d="M0,6 L10,6"/>
        </g>
        <g stroke="#D8D8DC" stroke-width="2" transform="rotate(90 -22.5 43.5)">
          <rect width="10" height="12" rx="1"/>
          <path d="M0,6 L10,6"/>
        </g>
        <g stroke="#D8D8DC" stroke-width="2" transform="rotate(90 -10.5 55.5)">
          <rect width="10" height="12" rx="1"/>
          <path d="M0,6 L10,6"/>
        </g>
        <path stroke="#D8D8DC" stroke-width="2" d="M33,101 L33,84 C33,83.4477153 33.4477153,83 34,83 L34,83 L44,83 C44.5522847,83 45,83.4477153 45,84 L45,101"/>
        <circle cx="41" cy="92" r="1" fill="#D8D8DC"/>
      </g>
      <g stroke="#D8D8DC" transform="matrix(-1 0 0 1 483 194)">
        <path stroke-linecap="round" stroke-width="2" d="M2.8125,7.41928563 L2.8125,6.10606061 C2.8125,2.73377645 5.54076481,0 8.90625,0 L8.90625,0 L8.90625,0 C12.2717352,0 15,2.73377645 15,6.10606061 L15,24.8939394"/>
        <path fill="#D8D8DC" stroke-width="1.9" d="M0,8.45454545 L0,8.45454545 C0,6.89810661 1.25919914,5.63636364 2.8125,5.63636364 L2.8125,5.63636364 L2.8125,5.63636364 C4.36580086,5.63636364 5.625,6.89810661 5.625,8.45454545 L5.625,8.45454545"/>
      </g>
      <path stroke="#D8D8DC" stroke-linecap="round" stroke-linejoin="round" stroke-width="2" d="M21.0075406,64 C21.0025304,63.8806307 21,63.7606136 21,63.64 C21,59.0228995 24.7080007,55.28 29.2820513,55.28 C31.0491009,55.28 32.6868981,55.8386036 34.0315879,56.7904135 C35.6687746,52.8040111 39.5612666,50 44.1025641,50 C50.1210518,50 55,54.9248678 55,61 C55,62.0400238 54.8570115,63.0463364 54.5897958,64 L54.5897958,64"/>
      <path stroke="#D8D8DC" stroke-linecap="round" stroke-linejoin="round" stroke-width="2" d="M555.284593,87 C555.098969,86.2856064 555,85.5347105 555,84.76 C555,79.9882598 558.754703,76.12 563.386364,76.12 C564.624031,76.12 565.799077,76.3962166 566.856594,76.8920787 C568.692628,73.3839773 572.291992,71 576.431818,71 C581.839511,71 586.325005,75.0678222 587.162651,80.3953849 C587.881986,80.1140324 588.662169,79.96 589.477273,79.96 C593.079676,79.96 596,82.9686465 596,86.68 C596,86.7872723 595.99756,86.8939575 595.992735,87 L595.992735,87" transform="matrix(-1 0 0 1 1151 0)"/>
      <circle cx="668" cy="73" r="2" fill="#D8D8DC"/>
      <circle cx="313" cy="138" r="2" fill="#D8D8DC"/>
      <circle cx="211" cy="99" r="2" fill="#D8D8DC"/>
      <circle cx="104" cy="128" r="2" fill="#D8D8DC"/>
      <circle cx="828" cy="42" r="2" fill="#D8D8DC"/>
      <circle cx="1028" cy="75" r="2" fill="#D8D8DC"/>
      <circle cx="530" cy="29" r="2" fill="#D8D8DC"/>
      <circle cx="744.5" cy="24.5" r="24.5" stroke="#D8D8DC" stroke-width="2"/>
      <path stroke="#D8D8DC" stroke-linecap="round" stroke-width="2" d="M1066 220.5L1109.61133 220.5M0 220.5L10.6113281 220.5M1119 220.5L1124.98364 220.5"/>
      <g transform="translate(61 131)">
        <polyline stroke="#D8D8DC" stroke-linecap="round" stroke-width="2" points="11.796 89 11.796 13.945 11.796 0"/>
        <circle cx="12" cy="14" r="3" fill="#D8D8DC"/>
        <g stroke="#D8D8DC" stroke-linecap="round" stroke-width="2" transform="translate(0 14)">
          <path d="M11,8 L23.2592515,0.0614596399" transform="matrix(-1 0 0 1 35 0)"/>
          <path d="M1.84741111e-13,8 L12.2592515,0.0614596399"/>
        </g>
      </g>
      <g transform="translate(368 120)">
        <polyline stroke="#D8D8DC" stroke-linecap="round" stroke-width="2" points="13.796 89 13.796 13.945 17.796 0"/>
        <circle cx="14" cy="14" r="3" fill="#D8D8DC"/>
        <g stroke="#D8D8DC" stroke-linecap="round" stroke-width="2" transform="rotate(19 -29.33 14.488)">
          <path d="M11,8 L23.2592515,0.0614596399" transform="matrix(-1 0 0 1 35 0)"/>
          <path d="M1.84741111e-13,8 L12.2592515,0.0614596399"/>
        </g>
      </g>
      <g stroke="#D8D8DC" stroke-linecap="round" stroke-width="2" transform="translate(306 201)">
        <ellipse cx="26.333" cy="13.294" rx="5.333" ry="5.294"/>
        <ellipse cx="5.333" cy="12.706" rx="5.333" ry="5.294"/>
        <path d="M5.33333333 12.7058824L11.7333333 4.23529412M5.33333333 12.7058824L16 12.7058824M20.2666667 5.29411765L16 12.7058824M10.6666667 1.05882353L16 12.7058824M19.2 1.05882353L25.8359375 12.7058824M11.7333333 4.23529412L20.2666667 4.23529412M19.2.529411765L22.3041667.529411765M8.53333333.529411765L13.2057292.529411765"/>
      </g>
      <g stroke="#D8D8DC" stroke-linecap="round" stroke-width="2" transform="matrix(-1 0 0 1 751 201)">
        <ellipse cx="26.333" cy="13.294" rx="5.333" ry="5.294"/>
        <ellipse cx="5.333" cy="12.706" rx="5.333" ry="5.294"/>
        <path d="M5.33333333 12.7058824L11.7333333 4.23529412M5.33333333 12.7058824L16 12.7058824M20.2666667 5.29411765L16 12.7058824M10.6666667 1.05882353L16 12.7058824M19.2 1.05882353L25.8359375 12.7058824M11.7333333 4.23529412L20.2666667 4.23529412M19.2.529411765L22.3041667.529411765M8.53333333.529411765L13.2057292.529411765"/>
      </g>
      <g stroke="#D8D8DC" stroke-linecap="round" stroke-width="2" transform="rotate(49 68.297 347.036)">
        <path d="M6.52414967,1.94137496 L13.2016508,1.97681451 C14.0879996,1.98151863 14.4090282,2.07468473 14.7327952,2.24859817 C15.0565622,2.42251161 15.3107126,2.67678838 15.4844651,3.00064178 C15.6582176,3.32449517 15.7512241,3.64557001 15.7554877,4.53192109 L15.7911159,11.9386589 C15.7950248,12.75126 15.723535,13.0470377 15.5822903,13.353016 C15.4410456,13.6589942 15.229727,13.9088382 14.9514253,14.0988933 C14.6731236,14.2889483 14.3933073,14.4085229 13.5913211,14.5394958 L5.09136675,15.9276289 C4.00123866,16.1056585 2.97319378,15.3662565 2.79516425,14.2761284 C2.76486242,14.0905812 2.76087417,13.9016883 2.78331729,13.7150274 L3.92300106,4.23620547 C4.02253991,3.40833457 4.13622349,3.11673219 4.32333339,2.82579731 C4.51044329,2.53486244 4.7628539,2.31217637 5.07484184,2.16278848 C5.38682978,2.01340059 5.69032797,1.93694962 6.52414967,1.94137496 Z" transform="rotate(-68 9.29 8.941)"/>
        <path d="M13,17 C18.7501904,22.1969632 15.9797518,21.2153908 15.2268541,28.0755205 C14.9820418,30.3061604 20,32.4963016 20,37"/>
      </g>
      <g stroke="#D8D8DC" stroke-linecap="round" stroke-linejoin="round" stroke-width="2" transform="matrix(-1 0 0 1 695 107)">
        <polyline points="0 8.471 3.185 12.965 6.181 8"/>
        <polyline points="14 .471 17.185 4.965 20.181 0"/>
        <polyline points="27 16.471 30.185 20.965 33.181 16"/>
      </g>
    </g>
    <path stroke="#D8D8DC" stroke-linecap="round" stroke-linejoin="round" stroke-width="2" d="M459.007541 14C459.00253 13.8806307 459 13.7606136 459 13.64 459 9.02289949 462.708001 5.28 467.282051 5.28 469.049101 5.28 470.686898 5.83860357 472.031588 6.79041348 473.668775 2.8040111 477.561267 0 482.102564 0 488.121052 0 493 4.92486775 493 11 493 12.0400238 492.857011 13.0463364 492.589796 14L492.589796 14M85.284593 59C85.0989694 58.2856064 85 57.5347105 85 56.76 85 51.9882598 88.7547029 48.12 93.3863636 48.12 94.6240305 48.12 95.7990775 48.3962166 96.8565942 48.8920787 98.6926275 45.3839773 102.291992 43 106.431818 43 111.839511 43 116.325005 47.0678222 117.162651 52.3953849 117.881986 52.1140324 118.662169 51.96 119.477273 51.96 123.079676 51.96 126 54.9686465 126 58.68 126 58.7872723 125.99756 58.8939575 125.992735 59L125.992735 59"/>
    <circle cx="984" cy="243" r="2" fill="#D8D8DC"/>
    <circle cx="817" cy="277" r="2" fill="#D8D8DC"/>
    <circle cx="565" cy="96" r="2" fill="#D8D8DC"/>
    <circle cx="794" cy="92" r="2" fill="#D8D8DC"/>
    <circle cx="19" cy="120" r="2" fill="#D8D8DC"/>
    <g stroke="#D8D8DC" stroke-linecap="round" stroke-linejoin="round" stroke-width="2" transform="translate(1055 1)">
      <circle cx="26" cy="26" r="26"/>
      <ellipse cx="26" cy="26" rx="18.571" ry="26"/>
      <ellipse cx="26" cy="26" rx="9.02" ry="26"/>
      <path d="M26,52 L20,62"/>
      <path d="M32,52 L26,62" transform="matrix(-1 0 0 1 58 0)"/>
      <path d="M33,62 C33,66.6768142 29.8659932,69 26,69 C22.1340068,69 19,66.6768142 19,62 L33,62 Z"/>
    </g>
    <path stroke="#D8D8DC" stroke-linecap="round" stroke-linejoin="round" stroke-width="2" d="M829.299446,60 C829.103753,59.1987752 829,58.361504 829,57.5 C829,51.7010101 833.70101,47 839.5,47 C840.937,47 842.306578,47.288669 843.553908,47.8111816 C845.394884,41.0062814 851.612802,36 859,36 C865.199787,36 870.575981,39.5262192 873.232402,44.6824767 C875.074957,43.6126068 877.215937,43 879.5,43 C885.446396,43 890.423005,47.1521539 891.688687,52.7153234 C892.697732,52.2559179 893.81898,52 895,52 C899.418278,52 903,55.581722 903,60 L903,60"/>
    <path stroke="#979797"/>
    <g stroke="#D8D8DC" stroke-linecap="round" stroke-linejoin="round" stroke-width="2" transform="translate(297 64)">
      <polyline points="0 .471 3.185 4.965 6.181 0"/>
      <polyline points="22 11.471 25.185 15.965 28.181 11"/>
    </g>
  </g>
</svg>
