<svg xmlns="http://www.w3.org/2000/svg" width="12" height="15" viewBox="0 0 12 15">
  <path fill="#55D262" fill-rule="evenodd" d="M4.54072085,15.0144043 C3.58295276,13.9511837 3,12.5436698 3,11 C3,7.6862915 5.6862915,5 9,5 C12.3137085,5 15,7.6862915 15,11 C15,12.6047194 14.3700259,14.0623004 13.343899,15.1389217 L9,19.9800415 L4.53112793,15.0144043 L4.54072085,15.0144043 Z M9,13 C10.1045695,13 11,12.1045695 11,11 C11,9.8954305 10.1045695,9 9,9 C7.8954305,9 7,9.8954305 7,11 C7,12.1045695 7.8954305,13 9,13 Z" transform="translate(-3 -5)"/>
</svg>
