<svg xmlns="http://www.w3.org/2000/svg" width="24" height="24" viewBox="0 0 24 24">
  <path fill="#00E676" d="M12.0755476,25 C9.94336075,25 7.8111739,24.4472108 5.99486658,23.3416324 L5.52104728,23.1047228 L0.940794039,24.289271 L2.12534229,19.7879877 L1.80946276,19.3141684 C-1.66521211,13.7073067 -0.00684456214,6.28413763 5.67898704,2.80946276 C11.3648187,-0.665212114 18.7090178,0.993155438 22.1836927,6.67898704 C25.6583676,12.3648187 24,19.7090178 18.3141684,23.1836927 C16.4978611,24.3682409 14.2867043,25 12.0755476,25 Z M19.0248973,16.2343429 L18.1562286,15.8394935 C18.1562286,15.8394935 16.8927105,15.2867043 16.1030117,14.8918549 C16.0240418,14.8918549 15.9450719,14.812885 15.866102,14.812885 C15.6291924,14.812885 15.4712526,14.8918549 15.3133128,14.9708248 C15.3133128,14.9708248 15.2343429,15.0497947 14.1287646,16.3133128 C14.0497947,16.4712526 13.8918549,16.5502225 13.7339152,16.5502225 L13.6549453,16.5502225 C13.5759754,16.5502225 13.4180356,16.4712526 13.3390657,16.3922827 L12.9442163,16.2343429 C12.0755476,15.8394935 11.2858488,15.3656742 10.6540897,14.7339152 C10.4961499,14.5759754 10.2592403,14.4180356 10.1013005,14.2600959 C9.54851133,13.7073067 8.99572215,13.0755476 8.60087273,12.3648187 L8.52190285,12.2068789 C8.44293296,12.127909 8.44293296,12.0489391 8.36396308,11.8909994 C8.36396308,11.7330596 8.36396308,11.5751198 8.44293296,11.4961499 C8.44293296,11.4961499 8.7588125,11.1013005 8.99572215,10.8643909 C9.15366192,10.7064511 9.2326318,10.4695414 9.39057157,10.3116017 C9.54851133,10.074692 9.62748122,9.7588125 9.54851133,9.52190285 C9.46954145,9.12705343 8.52190285,6.99486658 8.2849932,6.52104728 C8.12705343,6.28413763 7.96911366,6.20516774 7.73220401,6.12619786 L7.49529436,6.12619786 C7.3373546,6.12619786 7.10044495,6.12619786 6.8635353,6.12619786 C6.70559553,6.12619786 6.54765576,6.20516774 6.389716,6.20516774 L6.31074611,6.28413763 C6.15280635,6.36310751 5.99486658,6.52104728 5.83692681,6.60001716 C5.67898704,6.75795693 5.60001716,6.91589669 5.44207739,7.07383646 C4.88928821,7.78456541 4.57340868,8.65323413 4.57340868,9.52190285 C4.57340868,10.1536619 4.73134844,10.785421 4.96825809,11.3382102 L5.04722798,11.5751198 C5.75795693,13.0755476 6.70559553,14.4180356 7.96911366,15.6025839 L8.2849932,15.9184634 C8.52190285,16.1553731 8.7588125,16.3133128 8.91675227,16.5502225 C10.5751198,17.9716804 12.470397,18.9982889 14.6025839,19.551078 C14.8394935,19.6300479 15.1553731,19.6300479 15.3922827,19.7090178 C15.6291924,19.7090178 15.9450719,19.7090178 16.1819815,19.7090178 C16.576831,19.7090178 17.0506503,19.551078 17.3665298,19.3931383 C17.6034394,19.2351985 17.7613792,19.2351985 17.919319,19.0772587 L18.0772587,18.919319 C18.2351985,18.7613792 18.3931383,18.6824093 18.551078,18.5244696 C18.7090178,18.3665298 18.8669576,18.20859 18.9459275,18.0506503 C19.1038672,17.7347707 19.1828371,17.3399213 19.261807,16.9450719 C19.261807,16.7871321 19.261807,16.5502225 19.261807,16.3922827 C19.261807,16.3922827 19.1828371,16.3133128 19.0248973,16.2343429 Z" transform="translate(0 -1)"/>
</svg>
