<svg xmlns="http://www.w3.org/2000/svg" width="169" height="193" viewBox="0 0 169 193">
  <g fill="none" fill-rule="evenodd" transform="translate(-1)">
    <path fill="#55D262" d="M18.2324219,40.3482145 C18.2324219,41.1684543 20.870131,45 20.9350655,45 C21,45 20.7166686,45.5787456 23.0643129,46.3764648 C25.4119572,47.1741841 23.6622972,48.038766 26.9056115,48.038766 C30.1489258,48.038766 29.2307692,48.7265625 32.6153846,48.7265625 C36,48.7265625 36.6591797,48.7265625 37.5952148,48.7265625 C38.53125,48.7265625 41.5437812,49.6533203 42.5370038,49.6533203 C43.5302264,49.6533203 56,49.6533203 56,49.6533203 C56,49.6533203 62.9889772,48.7265625 64.9751156,48.7265625 C66.9612539,48.7265625 75.0660947,47.1741841 75.0660947,47.1741841 C75.0660947,47.1741841 77.6258278,46.4497119 82.7452941,45.0007674 L90.8764837,38.9282698 L90.8764837,30.7927494 L85.6648574,17.5268555 C83.2118535,13.6974178 81.6544596,11.7141821 80.9926758,11.5771484 C80,11.3715979 74.6295248,6.80322266 73.7309476,6.80322266 C72.8323704,6.80322266 66.0869499,3.81347656 64.9751156,3.81347656 C63.8632813,3.81347656 56.4040223,2.41064453 56,3.11206055 C55.5959777,3.81347656 45.7530072,5.19677734 44.6416168,6 C43.5302264,6.80322266 38.2397461,10.6279297 38.2397461,10.6279297 C38.2397461,10.6279297 36.1598307,12.9275716 32,17.5268555 C29.7435897,22.8882747 28.6153846,25.807487 28.6153846,26.2844922 C28.6153846,26.7614974 28.0454602,29 26.9056115,33 C21.1234851,37.3519831 18.2324219,39.801388 18.2324219,40.3482145 Z"/>
    <path fill="#FFF" d="M42.1814539,107.997649 C44.0653857,130.580654 52.679672,146.17606 68.024313,154.783867 C83.4331165,164.62177 98.8875355,167.987902 114.38757,164.882261 C132.183963,152.491558 137.218256,132.577966 129.490447,105.141485 C124.982801,85.8713717 114.6556,73.5557548 98.5088446,68.1946342 C99.1036615,54.3510583 95.9996674,45.2861802 89.1968622,41 C82.9207576,46.991982 69.4104742,49.987973 48.6660122,49.987973 C38.2118025,51.0483695 30.6111066,50.3655838 25.8639243,47.9396158 C22.5653031,55.69277 16.8041402,64.947531 25.8639243,89.6844785 C27.6572114,94.5808918 33.0963879,100.685282 42.1814539,107.997649 Z"/>
    <g transform="translate(108 27)">
      <path fill="#FFF" stroke="#1F2145" stroke-linecap="round" stroke-width="3" d="M-7.10542736e-15,44.4746577 C10.6491439,10.553457 26.7688908,-3.96375196 48.3592407,0.923030983 C60.3150152,4.02222606 62.9411411,14.818939 56.2376184,33.3131698 C49.5340956,51.8074006 36.5077741,62.2598746 17.1586538,64.6705917"/>
      <g stroke="#1F2145" stroke-linecap="round" stroke-width="3" transform="translate(10.914 26.05)">
        <path d="M-5.86197757e-14 27.9028834L22.418381-3.92574862e-13M6.16798844 20.1197071L3.95483502 8.53453374M13.8854711 10.1580087L12.817358 2.13852814M6.16798844 20.1197071L17.6619396 20.1197071M13.9414181 10.336959L22.3006553 10.336959"/>
      </g>
      <path fill="#2B2D5C" d="M46.1974589,0.840016829 C58.8152411,7.4519909 57.3827455,21.7631437 41.8999724,43.7734753 C32.003584,54.5200665 21.9053599,58.7297717 11.6052999,56.4025908 L17.1586538,64.6705917 L23.1970397,63.3538515 C38.761173,58.5999424 48.5640319,51.352128 52.6056164,41.6104084 L59.2422082,24.0599632 L59.8500709,12.4421585 L56.9458692,5.72427726 L51.2652595,1.83879718 L46.1974589,0.840016829 Z" opacity=".4"/>
    </g>
    <path fill="#1F2145" d="M132.918954,130.335384 L133,130.696033 L132.415251,134.40378 L131.731096,139.929687 L131.487331,140.287493 L131.407836,140.791555 L125.845728,154.23032 L118.523223,162.946266 L109.234593,165 L98.2934993,165 L86.3116899,162.946266 L76.1686944,158.096133 L67.1667744,154.23032 L58.6054074,146.838246 L49,135.507472 C69.1085724,137.504272 81.8198434,139.061725 87.133813,140.179831 L82.7452941,134.153318 C106.116194,121.94597 118.969187,105.228197 121.304275,84 L126.819336,95.7839999 L132.265153,114.176582 L133,129.680777 L132.918954,130.335384 Z"/>
    <path fill="#FFF" d="M26.9231672,138.502476 L114.070032,138.3539 C119.964538,135.124261 121.830581,131.221483 119.668162,126.645564 C117.505743,122.069646 114.367716,120.253372 110.254081,121.196744 L27.6520883,121.59416 L31.9284169,125.428448 L33.2719787,129.851568 L31.7829326,134.59575 L26.9231672,138.502476 Z" transform="rotate(8 73.73 129.729)"/>
    <g transform="translate(80 5)">
      <path fill="#FFF" d="M4.93827201e-13,6.37159787 C8.83268809,16.2854317 12.3942073,25.3517288 10.6845576,33.5704891 L15.496258,45.111846 L18.5645291,58.3322203 L18.5645291,62.9074694 L24.2789119,64.945717 C29.8331111,39.1392225 31.2216609,21.9638303 28.4445613,13.4195402 C25.6674617,4.87525012 20.86269,0.402070055 14.0302462,-1.13686838e-13 L6.8740504,1.25489866 L0.810970569,5.37445191 L4.93827201e-13,6.37159787 Z"/>
      <path stroke="#1F2145" stroke-linecap="round" stroke-width="3" d="M23.7934362,64.245815 C33.925911,23.1209153 30.9155735,1.71044231 14.7624237,0.0143960699 C7.95557096,-0.197109945 3.03476305,1.92195732 1.65201186e-13,6.37159787"/>
      <path fill="#2B2D5C" d="M23.9980757,62.9074694 C29.2257499,43.0888275 30.5326684,27.0639004 27.9188313,14.832688 L26.0267833,6.71864893 L19.5063156,1.19353339 L12.1086834,1.29318778e-12 C19.2834932,2.78095338 22.8708981,6.60435902 22.8708981,11.4702169 C24.5680207,26.3526443 23.1985989,42.0605375 18.7626327,58.5938965 L18.6773528,62.3795754 L22.8708981,64.0432253 L23.9980757,62.9074694 Z" opacity=".4"/>
    </g>
    <g transform="translate(17)">
      <path fill="#2B2D5C" d="M44.1100747,3.94289822 C58.7762555,14.5859389 65.8099832,25.8445968 65.2112577,37.7188721 C65.1278955,39.3721599 64.0377074,43.7686827 50.3507154,47.1741841 C65.1251779,44.4304994 72.9671007,42.5005033 73.8764837,41.384196 L73.1701077,26.6388889 L68.2694077,16.6786296 L62.5423935,10.4628092 L53.8427461,5.29865652 L42.9149355,3.11206055 L44.1100747,3.94289822 Z" opacity=".4"/>
      <path fill="#2B2D5C" fill-opacity=".25" fill-rule="nonzero" d="M48.3619463 3.09315434C48.838034 2.5954 49.6333245 2.57233368 50.1382774 3.04163427 50.6432304 3.51093486 50.6666303 4.29488777 50.1905426 4.79264211 44.2774627 10.9748251 41.3446165 19.1107379 41.4006267 29.2694995 41.4043984 29.9535965 40.8448656 30.5111806 40.1508752 30.5148986 39.4568848 30.5186166 38.8912368 29.9670605 38.887465 29.2829636 38.8280959 18.5149819 41.9833821 9.76200582 48.3619463 3.09315434zM36.00553 3.09315434C36.4816177 2.5954 37.2769082 2.57233368 37.7818612 3.04163427 38.2868141 3.51093486 38.310214 4.29488777 37.8341263 4.79264211 31.9210464 10.9748251 28.9882002 19.1107379 29.0442104 29.2694995 29.0479822 29.9535965 28.4884494 30.5111806 27.794459 30.5148986 27.1004685 30.5186166 26.5348205 29.9670605 26.5310488 29.2829636 26.4716796 18.5149819 29.6269658 9.76200582 36.00553 3.09315434z"/>
      <path stroke="#1F2145" stroke-linecap="round" stroke-width="3" d="M74.9862223,37.3091929 C76.0792088,34.3778114 75.2972889,30.7873051 75.2699905,30.6256721 C72.7157139,15.5019007 59.5444837,3.32063079 43.5836947,3.32063079 C25.7812766,3.32063079 11.483166,15.8581423 11.5065631,36.5100292" transform="rotate(6 43.536 20.315)"/>
      <path stroke="#1F2145" stroke-linecap="round" stroke-linejoin="round" stroke-width="3" d="M8.83950522,36.4158093 L0.935662293,43.2040406 C1.71820665,50.5647376 12.5803501,52.8491721 33.5220925,50.0573441 C54.463835,47.2655162 67.721592,42.6790105 73.2953636,36.2978271 L8.83950522,36.4158093 Z" transform="rotate(6 37.116 43.753)"/>
      <path stroke="#1F2145" stroke-linecap="round" stroke-width="3" d="M35.7400069 1.83333333C28.9420397 8.79391819 25.5749618 17.9415509 25.638773 29.2762316M48.0964232 1.83333333C41.298456 8.79391819 37.9313781 17.9415509 37.9951893 29.2762316"/>
    </g>
    <path fill="#2B2D5C" d="M61,112.376914 C52.6325583,115.28306 46.6325583,116.4409 43,115.850434 L43,112.773942 L43,107 L45.4973748,108.378515 L57.9033748,111.387724 L61,112.376914 Z" opacity=".4"/>
    <path fill="#2B2D5C" d="M21,72 C28.0005476,97.9804967 47.6672142,107.292523 80,99.9360781 C71.3925406,108.339391 61.9663781,111.480168 51.7215126,109.358409 L45.4297284,108.309638 L37.0869126,104.239619 L26.1193212,91.3591165 L21,72 Z" opacity=".4"/>
    <path stroke="#1F2145" stroke-linecap="round" stroke-width="3" d="M42,107.619998 C42.0925945,111.682434 42.2715957,114.676984 42.5370038,116.60365 M49.4087237,135.962348 C49.5860066,136.248758 49.7664689,136.533652 49.9501104,136.817028 C53.5160601,142.319627 58.2807851,147.250213 64.2442854,151.608784 C86.8441113,168.126422 112.281987,166.544352 118.593876,161.703011 C124.905765,156.86167 143.663663,137.047535 124.823154,90.8355786 C119.04597,78.6284776 110.846469,71.047265 99,68.0306469"/>
    <path fill="#FFF" d="M69.6500196,146.750327 C74.8103477,145.834133 79.0521058,144.961687 82.3752938,144.13299 L92.3164945,153.669044 C88.3145549,155.734876 84.9339644,156.354798 82.1747231,155.52881 C79.4154817,154.702822 75.2405805,151.776661 69.6500196,146.750327 Z" transform="rotate(-6 80.983 150.008)"/>
    <path stroke="#1F2145" stroke-width="2.835" d="M99,124 C112.614354,114.820882 119.947688,101.487549 121,84"/>
    <g transform="rotate(8 -795.333 191.992)">
      <polygon fill="#2B2D5C" points="16.579 7.562 101.843 19.264 99.003 22.706 94.909 22.705 85.011 21.907 43.404 16.205 14.636 12.51 11.174 11.343" opacity=".4" transform="rotate(-8 56.509 15.134)"/>
      <path stroke="#1F2145" stroke-linecap="round" stroke-width="3" d="M7.85675676,0.922705314 L94.349693,0.53086849 C99.1993502,0.53086849 103.130774,4.45540627 103.130774,9.29656897 C103.130774,14.1377317 99.1993502,18.0622695 94.349693,18.0622695 L7.85675676,18.4541063"/>
      <path stroke="#1F2145" stroke-linecap="round" stroke-width="3" d="M7.39459459,0.922705314 C11.9890066,0.922705314 15.7135135,4.8472431 15.7135135,9.6884058 C15.7135135,14.5295685 11.9890066,18.4541063 7.39459459,18.4541063 M7.32012511,18.4541063 C2.28170001,18.4541063 -6.63291644e-12,15.5623416 -6.63202826e-12,11.9951691 C-6.63202826e-12,8.42799657 2.89683867,5.53623188 6.47027027,5.53623188 M6.47027027,5.53623188 C8.51223118,5.53623188 10.1675676,6.98211423 10.1675676,8.76570048 C10.1675676,10.5492867 8.51223118,11.9951691 6.47027027,11.9951691"/>
    </g>
    <path stroke="#1F2145" stroke-linecap="round" stroke-width="3" d="M99,67.5244357 C99,56.5872231 95.8313662,48.541424 90.8764837,40.3482145 M25.0852301,48.038766 C23.0994254,53.8388265 22,60.2265017 22,66.9353359 C22,93.4701433 37.5873652,111 61.2834284,111"/>
    <g fill="#1F2145" transform="rotate(4 -970.393 537.297)">
      <path d="M24.7327025,6.4430311 C22.5731304,4.28183071 19.2895719,3.51166016 16.9368187,3.51166016 C15.5075907,3.51166016 14.3799644,3.79552372 13.7939211,4.29535973 C13.2076178,3.79552372 12.0799915,3.51166016 10.6507635,3.51166016 C8.29827027,3.51166016 5.01471184,4.28183071 2.85513973,6.4430311 C1.36559137,7.93368377 0.677627507,9.81815409 0.80996825,12.0440478 C0.82244832,12.2531328 0.972469162,12.4324539 1.18515036,12.4914896 C1.23403063,12.5052646 1.28369091,12.5116602 1.33283118,12.5116602 C1.49741211,12.5116602 1.656013,12.4378655 1.75611356,12.3074949 C2.19837604,11.7316503 3.47836322,10.3509517 4.66396988,10.0193676 C4.37692827,10.5017389 4.07766659,11.1039035 4.37380825,11.6204663 C4.45154868,11.7562485 4.59220947,11.8497218 4.75341038,11.8733361 C4.91539129,11.8976884 5.0786722,11.8482459 5.19645286,11.7417356 C5.67095553,11.3115126 7.15088383,10.1952449 8.28683021,10.1952449 C8.35027056,10.1952449 8.41319091,10.1991807 8.47559127,10.2065601 C8.86507345,10.2535427 9.25533564,10.277895 9.63545777,10.277895 C9.63545777,10.277895 9.63545777,10.277895 9.63545777,10.277895 C11.3272873,10.277895 12.8189156,9.80019738 13.7936611,9.00124691 C14.7681466,9.80019738 16.2600349,10.277895 17.9521244,10.277895 C18.3322466,10.277895 18.7225088,10.2535427 19.111991,10.2065601 C19.1743913,10.1991807 19.2370517,10.1952449 19.300752,10.1952449 C20.4366984,10.1952449 21.9168867,11.3115126 22.3913894,11.7417356 C22.50917,11.8487379 22.6727109,11.8979343 22.8344318,11.8733361 C22.9956327,11.8494758 23.1362935,11.7560026 23.214034,11.6204663 C23.5101756,11.1043955 23.210914,10.5022308 22.9241323,10.0198596 C24.107399,10.3521816 25.3886862,11.7321423 25.8319887,12.3077408 C25.9323492,12.4378655 26.0909501,12.5114142 26.255271,12.5114142 C26.3046713,12.5114142 26.3543316,12.5050186 26.4032119,12.4912436 C26.6153731,12.4319619 26.7656539,12.2528868 26.777874,12.0440478 C26.9104747,9.81815409 26.2219908,7.93368377 24.7327025,6.4430311 Z" transform="rotate(-13 13.794 8.012)"/>
      <path d="M10.8734034,12.2774689 C14.5364122,12.9922698 17.5277769,12.3953498 19.8474975,10.4867087 C19.1383158,13.1115232 17.7006175,14.5473028 15.5344028,14.7940475 C13.3681881,15.0407921 11.8145216,14.2019326 10.8734034,12.2774689 Z" transform="rotate(-5 15.36 12.661)"/>
    </g>
    <path fill="#1F2145" d="M29.193635 70C28.4568233 69.2586276 28 68.2275281 28 67.0874006 28 64.8299916 29.790861 63 32 63 34.209139 63 36 64.8299916 36 67.0874006 36 67.8627913 35.7887082 68.5877539 35.4217496 69.205448 34.6997024 68.4789314 33.7087753 68.0306469 32.6153846 68.0306469 31.1650562 68.0306469 29.8950096 68.8193902 29.193635 70zM61.8468663 66C61.3162395 65.3697324 61 64.576302 61 63.7142857 61 61.6629424 62.790861 60 65 60 67.209139 60 69 61.6629424 69 63.7142857 69 64.576302 68.6837605 65.3697324 68.1531337 66 67.4210258 65.1304174 66.2808138 64.5714286 65 64.5714286 63.7191862 64.5714286 62.5789742 65.1304174 61.8468663 66z"/>
    <path stroke="#1F2145" stroke-linecap="round" stroke-width="3" d="M70.4159073,155.033905 C68.1239957,162.041432 67.5372711,167.685912 68.6557335,171.967344 C69.7741959,176.248776 75.4711366,178.91536 85.7465556,179.967095" transform="rotate(-3 76.926 167.5)"/>
    <path stroke="#1F2145" stroke-linecap="round" stroke-width="3" d="M103.037382,152.908887 C100.745471,159.916414 100.158746,165.560893 101.277209,169.842326 C102.395671,174.123758 108.092612,176.790341 118.368031,177.842077" transform="rotate(-3 109.548 165.375)"/>
    <g stroke="#1F2145" stroke-linecap="round" stroke-width="3" transform="translate(65 108)">
      <path d="M2.48991454,0.668921489 C1.36587225,6.65429807 0.728730434,12.0144239 0.578489091,16.7492989 C0.428247748,21.484174 6.0888968,23.0175924 17.5604362,21.3495543" transform="scale(-1 1) rotate(1 0 -1027.755)"/>
      <path d="M8.28646254,23.7836991 C8.28646254,21.7269145 6.47321577,20.0595611 4.23646254,20.0595611 C1.9997093,20.0595611 0.186462536,21.7269145 0.186462536,23.7836991" transform="rotate(96 4.236 21.922)"/>
    </g>
    <path stroke="#1F2145" stroke-linecap="round" stroke-width="3" d="M90 177L90 177C91.6568542 177 93 178.343146 93 180L93 188C93 189.656854 91.6568542 191 90 191L90 191C88.3431458 191 87 189.656854 87 188L87 180C87 178.343146 88.3431458 177 90 177zM122 175L122 175C123.656854 175 125 176.343146 125 178L125 186C125 187.656854 123.656854 189 122 189L122 189C120.343146 189 119 187.656854 119 186L119 178C119 176.343146 120.343146 175 122 175z"/>
    <path stroke="#979797" stroke-width=".575"/>
    <g fill="#FFF" transform="rotate(22 -42.85 188.778)">
      <path d="M4.63145156,6.39241822 L6.66014243,6.32883681 C7.32029579,5.28264079 7.65037246,4.70713392 7.65037246,4.60231621 C7.65037246,4.49749851 7.53998021,3.91029961 7.3191957,2.84071953 L6.66014243,2.23427422 L4.84495254,2.23427422 C3.62629349,2.6385711 3.01696397,2.84071953 3.01696397,2.84071953 C3.01696397,2.84071953 3.27713171,3.68613783 3.79746719,5.37697442 L4.63145156,6.39241822 Z"/>
      <path stroke="#1F2145" stroke-linecap="round" stroke-width="3" d="M5.74430416,6.44283363 C7.23131689,6.3951982 8.42216214,5.17474819 8.42216214,3.67616136 C8.42216214,2.24862694 7.34156283,1.07348001 5.95372239,0.924078758 C5.97600435,0.923546227 5.99835188,0.923278449 6.02076196,0.923278449 C6.02582561,0.923278449 6.03088926,0.92329242 6.03595284,0.923320363 L35.9865404,1.08859541 C37.51777,1.09704513 38.7546142,2.34073341 38.7546142,3.8719863 C38.7546142,5.39236155 37.5221066,6.62486921 36.0017313,6.62486921 C35.9966677,6.62486921 35.991604,6.62485524 35.9865404,6.6248273 L6.03595284,6.45955225 C5.93743432,6.4590086 5.84013442,6.45335159 5.74430416,6.44283363 Z"/>
      <polyline stroke="#1F2145" stroke-linecap="round" stroke-width="2.835" points="5.622 6.474 .212 3.498 5.899 .956" transform="rotate(-1 3.055 3.715)"/>
    </g>
    <g stroke="#1F2145" stroke-linecap="round" stroke-width="3" transform="rotate(9 -566.958 71.126)">
      <path d="M40.0330312,16.2325999 C21.8961159,13.148176 8.78614643,8.99163228 0.703122777,3.76296884"/>
      <path d="M8.81859585,7.82877694 C8.81859585,5.61963794 6.80387722,3.82877694 4.31859585,3.82877694 C1.83331447,3.82877694 -0.181404153,5.61963794 -0.181404153,7.82877694" transform="rotate(120 4.319 5.829)"/>
    </g>
  </g>
</svg>
