<svg xmlns="http://www.w3.org/2000/svg" width="20" height="15" viewBox="0 0 20 15">
  <path fill="#55D262" fill-rule="evenodd" d="M9.850725,52.86475 L0.857475,47.58625 C1.595475,46.62325 2.740725,46 4.025475,46 L15.248475,46 C16.542225,46 17.694225,46.63225 18.432225,47.6065 L9.850725,52.86475 Z M10.314,54.67735 L19.1835,49.24135 C19.242,49.52035 19.27575,49.8106 19.27575,50.1076 L19.27575,56.52685 C19.27575,58.78585 17.4645,60.63535 15.2505,60.63535 L4.02525,60.63535 C1.81125,60.63535 6.92779167e-13,58.78585 6.92779167e-13,56.52685 L6.92779167e-13,50.1076 C6.92779167e-13,49.8016 0.036,49.50235 0.099,49.21435 L9.42075,54.68635 C9.558,54.7651 9.70875,54.8056 9.8595,54.8056 C10.017,54.8056 10.1745,54.76285 10.314,54.67735 Z" transform="translate(0 -46)"/>
</svg>
