<?xml version="1.0" encoding="UTF-8"?>
<svg width="473px" height="159px" viewBox="0 0 473 159" version="1.1" xmlns="http://www.w3.org/2000/svg" xmlns:xlink="http://www.w3.org/1999/xlink">
    <!-- Generator: sketchtool 54.1 (76490) - https://sketchapp.com -->
    <title>D8F940DF-4BED-4A44-BDE1-A8F6BD2DFF1B</title>
    <desc>Created with sketchtool.</desc>
    <g id="Design" stroke="none" stroke-width="1" fill="none" fill-rule="evenodd">
        <g id="Page-Pro" transform="translate(-841.000000, -1764.000000)">
            <g id="avantages" transform="translate(231.000000, 707.000000)">
                <g id="4" transform="translate(0.000000, 1059.000000)">
                    <g id="offres" transform="translate(611.000000, 0.000000)">
                        <g id="Group-37">
                            <g id="Group-17" transform="translate(0.000000, 53.000000)">
                                <path d="M12.1972656,70.5 L449,70.5" id="Path-19" stroke="#D8D8DC" stroke-width="2" stroke-linecap="round"></path>
                                <path d="M455,70.5 L471,70.5" id="Path-27" stroke="#D8D8DC" stroke-width="2" stroke-linecap="round"></path>
                                <path d="M0,70.5 L5.98364258,70.5" id="Path-27-Copy" stroke="#D8D8DC" stroke-width="2" stroke-linecap="round"></path>
                                <g id="Group-27" transform="translate(60.000000, 35.000000)" stroke="#D8D8DC" stroke-width="2">
                                    <g id="Group-6-Copy-3">
                                        <ellipse id="Oval" cx="12.5" cy="12.6724138" rx="12.5" ry="12.6724138"></ellipse>
                                        <path d="M12.5,10.862069 L12.5,34.8480276" id="Path-20" stroke-linecap="round"></path>
                                        <path d="M19.047619,10.862069 L19.047619,11.3793103 C19.047619,15.0929492 16.1161501,18.1034483 12.5,18.1034483 L12.5,18.1034483 C8.88384985,18.1034483 5.95238095,15.0929492 5.95238095,11.3793103 L5.95238095,10.862069" id="Shape" stroke-linecap="round"></path>
                                    </g>
                                </g>
                                <g id="Group-9" transform="translate(330.000000, 0.000000)">
                                    <g id="Group-8">
                                        <path d="M0,70 L0,6.82051282 C-6.76353751e-17,6.3673561 0.44771525,6 1,6 L53,6 C53.5522847,6 54,6.3673561 54,6.82051282 L54,70" id="Path" stroke="#D8D8DC" stroke-width="2"></path>
                                        <rect id="Rectangle-Copy-4" stroke="#D8D8DC" stroke-width="2" x="9" y="0" width="6" height="6" rx="1"></rect>
                                        <g id="Group-7-Copy-3" transform="translate(15.000000, 24.000000) rotate(-270.000000) translate(-15.000000, -24.000000) translate(10.000000, 18.000000)" stroke="#D8D8DC" stroke-width="2">
                                            <rect id="Rectangle-Copy-2" x="0" y="0" width="10" height="12" rx="1"></rect>
                                            <path d="M0,6 L10,6" id="Path-21"></path>
                                        </g>
                                        <g id="Group-7-Copy-2" transform="translate(39.000000, 24.000000) rotate(-270.000000) translate(-39.000000, -24.000000) translate(34.000000, 18.000000)" stroke="#D8D8DC" stroke-width="2">
                                            <rect id="Rectangle-Copy-2" x="0" y="0" width="10" height="12" rx="1"></rect>
                                            <path d="M0,6 L10,6" id="Path-21"></path>
                                        </g>
                                        <g id="Group-7-Copy-4" transform="translate(27.000000, 41.000000) rotate(-270.000000) translate(-27.000000, -41.000000) translate(22.000000, 23.000000)" stroke="#D8D8DC" stroke-width="2">
                                            <rect id="Rectangle-Copy-2" x="0" y="-9.09494702e-13" width="10" height="36" rx="1"></rect>
                                            <path d="M0,24 L10,24" id="Path-21"></path>
                                            <path d="M0,12 L10,12" id="Path-21-Copy"></path>
                                        </g>
                                        <path d="M33,71 L33,54 C33,53.4477153 33.4477153,53 34,53 L34,53 L44,53 C44.5522847,53 45,53.4477153 45,54 L45,71" id="Path" stroke="#D8D8DC" stroke-width="2"></path>
                                        <circle id="Oval" fill="#D8D8DC" cx="41" cy="62" r="1"></circle>
                                    </g>
                                    <path d="M70.1943562,70 C70.0675889,69.5088544 70,68.9926135 70,68.46 C70,65.1794286 72.5641873,62.52 75.7272727,62.52 C76.5725087,62.52 77.3749797,62.7098989 78.0971863,63.0508041 C79.3510627,60.6389844 81.8091651,59 84.6363636,59 C88.3294224,59 91.3926862,61.7966277 91.9647372,65.4593271 C92.4559905,65.2658972 92.9887986,65.16 93.5454545,65.16 C96.0056321,65.16 98,67.2284445 98,69.78 C98,69.8537497 97.9983338,69.9270958 97.9950384,70 L97.9950384,70" id="Path" stroke="#D8D8DC" stroke-width="2" stroke-linecap="round" stroke-linejoin="round"></path>
                                </g>
                                <g id="Group-10-Copy-2" transform="translate(124.000000, 52.500000) scale(-1, 1) translate(-124.000000, -52.500000) translate(94.000000, 34.000000)">
                                    <path d="M0,36 L0,7 C-6.76353751e-17,6.44771525 0.44771525,6 1,6 L59,6 C59.5522847,6 60,6.44771525 60,7 L60,36" id="Path" stroke="#D8D8DC" stroke-width="2"></path>
                                    <rect id="Rectangle-Copy-4" stroke="#D8D8DC" stroke-width="2" x="45" y="0" width="8" height="6" rx="1"></rect>
                                    <g id="Group-15" transform="translate(7.000000, 14.000000)" fill="#D8D8DC" fill-rule="nonzero">
                                        <path d="M24,6 L24,2 L2,2 L2,6 L24,6 Z M24,8 L2,8 L2,12 L24,12 L24,8 Z M2,0 L24,0 C25.1045695,-2.22044605e-16 26,0.8954305 26,2 L26,12 C26,13.1045695 25.1045695,14 24,14 L2,14 C0.8954305,14 1.11022302e-16,13.1045695 0,12 L0,2 C-2.22044605e-16,0.8954305 0.8954305,2.22044605e-16 2,0 Z" id="Combined-Shape"></path>
                                    </g>
                                    <g id="Group-14" transform="translate(41.000000, 19.000000)">
                                        <path d="M0,18 L0,1 C0,0.44771525 0.44771525,0 1,0 L1,0 L11,0 C11.5522847,0 12,0.44771525 12,1 L12,18" id="Path" stroke="#D8D8DC" stroke-width="2"></path>
                                        <circle id="Oval" fill="#D8D8DC" cx="8" cy="9" r="1"></circle>
                                    </g>
                                </g>
                            </g>
                            <g id="devis" transform="translate(161.000000, 0.000000)">
                                <path d="M20.7400531,127.255912 C20.7400531,131.924149 20.7400531,134.258267 20.7400531,134.258267 C20.7400531,134.258267 21.3651636,135.63578 22.6153846,138.390805 L24.9114071,138.390805 L124.533156,138.390805 L124.533156,133.618708 L124.533156,8.90463407 L122.263634,4.77209671 L107.09169,4.77209671 L24.9114071,4.77209671 L20.7400531,7.54231771 L20.7400531,18.0555181 L20.7400531,87.6414332 L20.7400531,127.255912 Z" id="Path-2" fill="#FFFFFF"></path>
                                <path d="M21,87.6969227 L21,8.96012356 C21,6.6777862 22.8675788,4.82758621 25.171354,4.82758621 C29.719564,4.82758621 35.971563,4.82758621 38.1610675,4.82758621 M107.351637,4.82758621 C109.659853,4.82758621 116.005318,4.82758621 120.621749,4.82758621 C122.925525,4.82758621 124.793103,6.6777862 124.793103,8.96012356 L124.793103,134.313757 C124.793103,136.596094 122.925525,138.446294 120.621749,138.446294 L25.171354,138.446294 C22.8675788,138.446294 21,136.596094 21,134.313757 L21,123.815563" id="Shape-Copy-2" stroke="#1F2145" stroke-width="3" stroke-linecap="round" stroke-linejoin="round"></path>
                                <path d="M22.6153846,131.009512 L97.8916767,131.009512 C107.045436,126.510302 113.184108,97.3536542 116.307692,43.5395693 C111.930335,73.6791306 109.741656,88.7489112 109.741656,88.7489112 C105.488828,100.47161 103.362413,106.332959 103.362413,106.332959 C98.4907164,114.85134 96.054868,119.11053 96.054868,119.11053 C92.142605,122.677028 90.1864735,124.460277 90.1864735,124.460277 L22.6153846,124.737265 L22.6153846,131.009512 Z" id="Path-25-Copy" fill="#2B2D5C" opacity="0.399999976"></path>
                                <path d="M1.2438777,123.760074 L90.579064,122.735722 C108.420861,104.261067 116.547739,67.5910237 114.959698,12.7255912 L29.4003155,12.7329158 C28.9735862,37.0337569 27.1604852,58.2296157 23.9610126,76.3204921 C20.76154,94.4113685 13.1891617,110.224562 1.2438777,123.760074 Z" id="Path-43" fill="#FFFFFF"></path>
                                <rect id="Rectangle" fill="#D6D8E3" x="35.5384615" y="6.43678161" width="72.6923077" height="20.9195402" rx="4.5"></rect>
                                <rect id="Rectangle-Copy-9" stroke="#1F2145" stroke-width="3" fill="#FFFFFF" stroke-linecap="round" stroke-linejoin="round" x="38.7692308" y="0" width="67.8461538" height="19.3103448" rx="2.592"></rect>
                                <path d="M5.63333834,120.79023 C75.9498948,128.269752 112.392015,92.2482054 114.959698,12.7255912 L117.042819,17.9934447 L114.959698,51.0102371 L108.899639,85.2873563 L106.151194,101.451598 L91.5626502,120.79023 L87.2307692,123.760074 L1.2438777,123.760074 L5.63333834,120.79023 Z" id="Path-29" fill="#D6D8E3"></path>
                                <path d="M38.3236074,12.7255912 L29.3866673,12.7255912 C27.7490784,74.0660584 17.9535226,111.077553 4.54747351e-13,123.760074" id="Path-22-Copy-2" stroke="#1F2145" stroke-width="3" stroke-linecap="round" stroke-linejoin="round"></path>
                                <path d="M107.452125,12.7255912 C113.529134,12.7255912 116.567639,12.7255912 116.567639,12.7255912 C116.567639,12.7255912 116.585904,104.6672 89.4416277,123.760074 L4.54747351e-13,123.760074" id="Path-22-Copy-3" stroke="#1F2145" stroke-width="3" stroke-linecap="round" stroke-linejoin="round"></path>
                                <path d="M42,44.3457345 C44.1125669,43.110455 45.8099216,41.6255765 48.3377006,40.6398958 C63.8039611,34.608991 54.3594091,43.9466748 60.653454,44.5987949 C66.8740657,45.2433068 69.9576056,40.4210295 75.9800219,39.9305787 C82.0248917,39.4382994 78.4972542,44.2781118 83.1485725,44.5373997 C85.7184151,44.6806557 90.1140083,42.0107132 95.3076923,41.6393295" id="Path-44" stroke="#1F2145" stroke-width="3" stroke-linecap="round" stroke-linejoin="round"></path>
                                <path d="M43.6153846,68.4836656 C45.3327517,67.248386 46.7125807,65.7635075 48.7674858,64.7778268 C61.340459,58.746922 53.6627079,68.0846058 58.7793201,68.736726 C63.8362364,69.3812378 66.3429357,64.5589606 71.2387331,64.0685098 C76.1527836,63.5762304 73.2850645,68.4160429 77.0662564,68.6753308 C79.1553563,68.8185867 82.7286619,66.1486443 86.9507587,65.7772605" id="Path-44-Copy-2" stroke="#1F2145" stroke-width="3" stroke-linecap="round" stroke-linejoin="round"></path>
                                <path d="M37.1538462,91.0124012 C38.8712132,89.7771216 40.2510423,88.2922431 42.3059473,87.3065625 C54.8789205,81.2756576 47.2011694,90.6133414 52.3177817,91.2654616 C57.3746979,91.9099734 59.8813972,87.0876962 64.7771947,86.5972454 C69.6912452,86.1049661 66.823526,90.9447785 70.604718,91.2040664 C72.6938178,91.3473224 76.2671234,88.6773799 80.4892203,88.3059961" id="Path-44-Copy-3" stroke="#1F2145" stroke-width="3" stroke-linecap="round" stroke-linejoin="round"></path>
                            </g>
                            <circle id="Oval" stroke="#1F2145" stroke-width="4" fill="#55D262" stroke-linecap="round" stroke-linejoin="round" cx="277.5" cy="119.5" r="35.5"></circle>
                            <polyline id="Path-57" stroke="#1F2145" stroke-width="4" stroke-linecap="round" stroke-linejoin="round" transform="translate(277.609271, 117.479948) rotate(367.000000) translate(-277.609271, -117.479948) " points="264.609271 120.649666 274.908038 131.479948 290.609271 103.479948"></polyline>
                        </g>
                    </g>
                </g>
            </g>
        </g>
    </g>
</svg>