<svg xmlns="http://www.w3.org/2000/svg" width="1161" height="525" viewBox="0 0 1161 525">
  <g fill="none" fill-rule="evenodd" opacity=".35">
    <path stroke="#FFF" stroke-linecap="round" stroke-width="2" d="M1008.00754,524 C1008.00253,523.880631 1008,523.760614 1008,523.64 C1008,519.022899 1011.708,515.28 1016.28205,515.28 C1018.0491,515.28 1019.6869,515.838604 1021.03159,516.790413 C1022.66877,512.804011 1026.56127,510 1031.10256,510 C1037.12105,510 1042,514.924868 1042,521 C1042,522.040024 1041.85701,523.046336 1041.5898,524 L1041.5898,524" transform="matrix(-1 0 0 1 2050 0)"/>
    <g stroke="#FFF" stroke-linecap="round" stroke-width="2" transform="translate(961 481)">
      <path d="M26.94988 14.6714465C26.9830643 14.285378 27 13.8946668 27 13.5 27 6.04415588 20.9558441 0 13.5 0 6.04415588 0 0 6.04415588 0 13.5 0 20.9558441 6.04415588 27 13.5 27L13.5 27C16.182444 27 18.6821594 26.217646 20.7834145 24.8686695M13.5 12.4330418L13.5 42.87408"/>
      <path d="M19,13 L19,13.4285714 C19,16.5055865 16.5375661,19 13.5,19 L13.5,19 C10.4624339,19 8,16.5055865 8,13.4285714 L8,13"/>
      <g transform="translate(21 14)">
        <circle cx="10.5" cy="10.5" r="10.5"/>
        <path d="M10.5 9L10.5 28.87408M16 9L16 9.42857143C16 12.5055865 13.5375661 15 10.5 15L10.5 15C7.46243388 15 5 12.5055865 5 9.42857143L5 9"/>
      </g>
    </g>
    <g stroke="#FFF" stroke-linecap="round" stroke-width="2" transform="translate(366 481)">
      <circle cx="13.5" cy="13.5" r="13.5"/>
      <path d="M13.5 12.4330418L13.5 42.87408M19 13L19 13.4285714C19 16.5055865 16.5375661 19 13.5 19L13.5 19C10.4624339 19 8 16.5055865 8 13.4285714L8 13"/>
    </g>
    <g stroke="#FFF" stroke-linecap="round" stroke-width="2" transform="translate(113 486)">
      <circle cx="10.5" cy="10.5" r="10.5"/>
      <path d="M10.5 9L10.5 28.87408M16 9L16 9.42857143C16 12.5055865 13.5375661 15 10.5 15L10.5 15C7.46243388 15 5 12.5055865 5 9.42857143L5 9"/>
    </g>
    <path stroke="#FFF" stroke-linecap="round" stroke-width="2" d="M394.007541 524C394.00253 523.880631 394 523.760614 394 523.64 394 519.022899 397.708001 515.28 402.282051 515.28 404.049101 515.28 405.686898 515.838604 407.031588 516.790413 408.668775 512.804011 412.561267 510 417.102564 510 423.121052 510 428 514.924868 428 521 428 522.040024 427.857011 523.046336 427.589796 524L427.589796 524M114.007541 524C114.00253 523.880631 114 523.760614 114 523.64 114 519.022899 117.708001 515.28 122.282051 515.28 124.049101 515.28 125.686898 515.838604 127.031588 516.790413 128.668775 512.804011 132.561267 510 137.102564 510 143.121052 510 148 514.924868 148 521 148 522.040024 147.857011 523.046336 147.589796 524L147.589796 524"/>
    <g transform="translate(675 488)">
      <path stroke="#FFF" stroke-linecap="round" stroke-width="2" d="M0,36 L0,7 C-6.76353751e-17,6.44771525 0.44771525,6 1,6 L59,6 C59.5522847,6 60,6.44771525 60,7 L60,36"/>
      <rect width="29" height="6" x="7" stroke="#FFF" stroke-linecap="round" stroke-width="2" rx="1"/>
      <path fill="#FFF" fill-rule="nonzero" d="M52,20 L52,16 L44,16 L44,20 L52,20 Z M52,22 L44,22 L44,26 L52,26 L52,22 Z M16,20 L16,16 L8,16 L8,20 L16,20 Z M16,22 L8,22 L8,26 L16,26 L16,22 Z M8,14 L16,14 C17.1045695,14 18,14.8954305 18,16 L18,26 C18,27.1045695 17.1045695,28 16,28 L8,28 C6.8954305,28 6,27.1045695 6,26 L6,16 C6,14.8954305 6.8954305,14 8,14 Z M44,14 L52,14 C53.1045695,14 54,14.8954305 54,16 L54,26 C54,27.1045695 53.1045695,28 52,28 L44,28 C42.8954305,28 42,27.1045695 42,26 L42,16 C42,14.8954305 42.8954305,14 44,14 Z"/>
      <path stroke="#FFF" stroke-linecap="round" stroke-width="2" d="M24,36 L24,19.9444444 C24,19.4228422 24.4477153,19 25,19 L25,19 L35,19 C35.5522847,19 36,19.4228422 36,19.9444444 L36,36"/>
      <circle cx="32" cy="28" r="1" fill="#FFF"/>
    </g>
    <g transform="translate(262 488)">
      <path stroke="#FFF" stroke-linecap="round" stroke-width="2" d="M0,36 L0,7 C-6.76353751e-17,6.44771525 0.44771525,6 1,6 L59,6 C59.5522847,6 60,6.44771525 60,7 L60,36"/>
      <rect width="21" height="6" x="32" stroke="#FFF" stroke-linecap="round" stroke-width="2" rx="1"/>
      <path fill="#FFF" fill-rule="nonzero" d="M24,6 L24,2 L2,2 L2,6 L24,6 Z M24,8 L2,8 L2,12 L24,12 L24,8 Z M2,0 L24,0 C25.1045695,-2.22044605e-16 26,0.8954305 26,2 L26,12 C26,13.1045695 25.1045695,14 24,14 L2,14 C0.8954305,14 1.11022302e-16,13.1045695 0,12 L0,2 C-2.22044605e-16,0.8954305 0.8954305,2.22044605e-16 2,0 Z" transform="translate(7 14)"/>
      <g transform="translate(41 19)">
        <path stroke="#FFF" stroke-linecap="round" stroke-width="2" d="M0,17 L0,0.944444444 C0,0.422842181 0.44771525,0 1,0 L1,0 L11,0 C11.5522847,0 12,0.422842181 12,0.944444444 L12,17"/>
        <circle cx="8" cy="9" r="1" fill="#FFF"/>
      </g>
    </g>
    <g transform="translate(894 488)">
      <path stroke="#FFF" stroke-linecap="round" stroke-width="2" d="M0,25.565918 L0,7 C-6.76353751e-17,6.44771525 0.44771525,6 1,6 L59,6 C59.5522847,6 60,6.44771525 60,7 L60,36"/>
      <rect width="21" height="6" x="32" stroke="#FFF" stroke-linecap="round" stroke-width="2" rx="1"/>
      <path fill="#FFF" fill-rule="nonzero" d="M24,6 L24,2 L2,2 L2,6 L24,6 Z M24,8 L2,8 L2,12 L24,12 L24,8 Z M2,0 L24,0 C25.1045695,-2.22044605e-16 26,0.8954305 26,2 L26,12 C26,13.1045695 25.1045695,14 24,14 L2,14 C0.8954305,14 1.11022302e-16,13.1045695 0,12 L0,2 C-2.22044605e-16,0.8954305 0.8954305,2.22044605e-16 2,0 Z" transform="translate(28 14)"/>
      <g transform="translate(11 19)">
        <path stroke="#FFF" stroke-linecap="round" stroke-width="2" d="M0,17 L0,0.944444444 C0,0.422842181 0.44771525,0 1,0 L1,0 L11,0 C11.5522847,0 12,0.422842181 12,0.944444444 L12,17"/>
        <circle cx="8" cy="9" r="1" fill="#FFF"/>
      </g>
    </g>
    <g transform="translate(424 470)">
      <path stroke="#FFF" stroke-linecap="round" stroke-width="2" d="M4.4408921e-16,42.3852539 L0,7 C-6.76353751e-17,6.44771525 0.44771525,6 1,6 L59,6 C59.5522847,6 60,6.44771525 60,7 L60,54"/>
      <rect width="28" height="6" x="7" stroke="#FFF" stroke-linecap="round" stroke-width="2" rx="1"/>
      <path fill="#FFF" fill-rule="nonzero" d="M46,6 L46,2 L38,2 L38,6 L46,6 Z M46,8 L38,8 L38,12 L46,12 L46,8 Z M28,6 L28,2 L20,2 L20,6 L28,6 Z M28,8 L20,8 L20,12 L28,12 L28,8 Z M10,6 L10,2 L2,2 L2,6 L10,6 Z M10,8 L2,8 L2,12 L10,12 L10,8 Z M46,25 L46,21 L38,21 L38,25 L46,25 Z M46,27 L38,27 L38,31 L46,31 L46,27 Z M10,25 L10,21 L2,21 L2,25 L10,25 Z M10,27 L2,27 L2,31 L10,31 L10,27 Z M2,19 L10,19 C11.1045695,19 12,19.8954305 12,21 L12,31 C12,32.1045695 11.1045695,33 10,33 L2,33 C0.8954305,33 1.11022302e-16,32.1045695 0,31 L0,21 C-2.22044605e-16,19.8954305 0.8954305,19 2,19 Z M38,19 L46,19 C47.1045695,19 48,19.8954305 48,21 L48,31 C48,32.1045695 47.1045695,33 46,33 L38,33 C36.8954305,33 36,32.1045695 36,31 L36,21 C36,19.8954305 36.8954305,19 38,19 Z M2,0 L10,0 C11.1045695,-2.22044605e-16 12,0.8954305 12,2 L12,12 C12,13.1045695 11.1045695,14 10,14 L2,14 C0.8954305,14 1.11022302e-16,13.1045695 0,12 L0,2 C-2.22044605e-16,0.8954305 0.8954305,2.22044605e-16 2,0 Z M20,0 L28,0 C29.1045695,-2.22044605e-16 30,0.8954305 30,2 L30,12 C30,13.1045695 29.1045695,14 28,14 L20,14 C18.8954305,14 18,13.1045695 18,12 L18,2 C18,0.8954305 18.8954305,2.22044605e-16 20,0 Z M38,0 L46,0 C47.1045695,-2.22044605e-16 48,0.8954305 48,2 L48,12 C48,13.1045695 47.1045695,14 46,14 L38,14 C36.8954305,14 36,13.1045695 36,12 L36,2 C36,0.8954305 36.8954305,2.22044605e-16 38,0 Z" transform="translate(6 13)"/>
      <path stroke="#FFF" stroke-linecap="round" stroke-width="2" d="M24,54 L24,37.9444444 C24,37.4228422 24.4477153,37 25,37 L25,37 L35,37 C35.5522847,37 36,37.4228422 36,37.9444444 L36,54"/>
      <circle cx="32" cy="46" r="1" fill="#FFF"/>
    </g>
    <g transform="translate(62 440)">
      <g transform="translate(541)">
        <path stroke="#FFF" stroke-linecap="round" stroke-width="2" d="M0,76.8007812 L0,7 C-6.76353751e-17,6.44771525 0.44771525,6 1,6 L53,6 C53.5522847,6 54,6.44771525 54,7 L54,84"/>
        <rect width="6" height="6" x="9" stroke="#FFF" stroke-linecap="round" stroke-width="2" rx="1"/>
        <g stroke="#FFF" stroke-linecap="round" stroke-width="2" transform="rotate(90 2.5 18.5)">
          <rect width="10" height="12" rx="1"/>
          <path d="M0,6 L10,6"/>
        </g>
        <g stroke="#FFF" stroke-linecap="round" stroke-width="2" transform="rotate(90 14.5 30.5)">
          <rect width="10" height="12" rx="1"/>
          <path d="M0,6 L10,6"/>
        </g>
        <g stroke="#FFF" stroke-linecap="round" stroke-width="2" transform="rotate(90 -6 27)">
          <rect width="10" height="12" rx="1"/>
          <path d="M0,6 L10,6"/>
        </g>
        <g stroke="#FFF" stroke-linecap="round" stroke-width="2" transform="rotate(90 6 39)">
          <rect width="10" height="12" rx="1"/>
          <path d="M0,6 L10,6"/>
        </g>
        <g stroke="#FFF" stroke-linecap="round" stroke-width="2" transform="rotate(90 -14.5 35.5)">
          <rect width="10" height="12" rx="1"/>
          <path d="M0,6 L10,6"/>
        </g>
        <g stroke="#FFF" stroke-linecap="round" stroke-width="2" transform="rotate(90 -2.5 47.5)">
          <rect width="10" height="12" rx="1"/>
          <path d="M0,6 L10,6"/>
        </g>
        <path stroke="#FFF" stroke-linecap="round" stroke-width="2" d="M33,84 L33,67.9444444 C33,67.4228422 33.4477153,67 34,67 L34,67 L44,67 C44.5522847,67 45,67.4228422 45,67.9444444 L45,84"/>
        <circle cx="41" cy="76" r="1" fill="#FFF"/>
      </g>
      <path stroke="#FFF" stroke-linecap="round" stroke-width="2" d="M509.284593 84C509.098969 83.2856064 509 82.5347105 509 81.76 509 76.9882598 512.754703 73.12 517.386364 73.12 518.624031 73.12 519.799077 73.3962166 520.856594 73.8920787 522.692628 70.3839773 526.291992 68 530.431818 68 535.839511 68 540.325005 72.0678222 541.162651 77.3953849 541.881986 77.1140324 542.662169 76.96 543.477273 76.96 547.079676 76.96 550 79.9686465 550 83.68 550 83.7872723 549.99756 83.8939575 549.992735 84L549.992735 84M.284593005 84C.0989693905 83.2856064 0 82.5347105 0 81.76 0 76.9882598 3.75470289 73.12 8.38636364 73.12 9.62403053 73.12 10.7990775 73.3962166 11.8565942 73.8920787 13.6926275 70.3839773 17.2919918 68 21.4318182 68 26.8395114 68 31.3250047 72.0678222 32.1626509 77.3953849 32.8819861 77.1140324 33.6621694 76.96 34.4772727 76.96 38.0796755 76.96 41 79.9686465 41 83.68 41 83.7872723 40.9975603 83.8939575 40.9927349 84L40.9927349 84"/>
    </g>
    <g transform="translate(144 436)">
      <path stroke="#FFF" stroke-linecap="round" stroke-width="2" d="M0,80.4315905 L0,7.05128205 C-6.76353751e-17,6.47067501 0.44771525,6 1,6 L53,6 C53.5522847,6 54,6.47067501 54,7.05128205 L54,76.6401367" transform="matrix(-1 0 0 1 54 0)"/>
      <rect width="6" height="6" x="39" stroke="#FFF" stroke-linecap="round" stroke-width="2" rx="1" transform="matrix(-1 0 0 1 84 0)"/>
      <path fill="#FFF" fill-rule="nonzero" d="M36,44 L36,40 L2,40 L2,44 L36,44 Z M36,46 L2,46 L2,50 L36,50 L36,46 Z M36,25 L36,21 L2,21 L2,25 L36,25 Z M36,27 L2,27 L2,31 L36,31 L36,27 Z M36,6 L36,2 L2,2 L2,6 L36,6 Z M36,8 L2,8 L2,12 L36,12 L36,8 Z M2,0 L36,0 C37.1045695,-2.22044605e-16 38,0.8954305 38,2 L38,12 C38,13.1045695 37.1045695,14 36,14 L2,14 C0.8954305,14 1.11022302e-16,13.1045695 0,12 L0,2 C-2.22044605e-16,0.8954305 0.8954305,2.22044605e-16 2,0 Z M2,19 L36,19 C37.1045695,19 38,19.8954305 38,21 L38,31 C38,32.1045695 37.1045695,33 36,33 L2,33 C0.8954305,33 1.11022302e-16,32.1045695 0,31 L0,21 C-2.22044605e-16,19.8954305 0.8954305,19 2,19 Z M2,38 L36,38 C37.1045695,38 38,38.8954305 38,40 L38,50 C38,51.1045695 37.1045695,52 36,52 L2,52 C0.8954305,52 1.11022302e-16,51.1045695 0,50 L0,40 C-2.22044605e-16,38.8954305 0.8954305,38 2,38 Z" transform="translate(8 13)"/>
      <path stroke="#FFF" stroke-linecap="round" stroke-width="2" d="M9,88 L9,71 C9,70.4477153 9.44771525,70 10,70 L10,70 L20,70 C20.5522847,70 21,70.4477153 21,71 L21,88" transform="matrix(-1 0 0 1 30 0)"/>
      <circle cx="13" cy="80" r="1" fill="#FFF" transform="matrix(-1 0 0 1 26 0)"/>
      <path stroke="#FFF" stroke-linecap="round" stroke-width="2" d="M45.284593,88 C45.0989694,87.2856064 45,86.5347105 45,85.76 C45,80.9882598 48.7547029,77.12 53.3863636,77.12 C54.6240305,77.12 55.7990775,77.3962166 56.8565942,77.8920787 C58.6926275,74.3839773 62.2919918,72 66.4318182,72 C71.8395114,72 76.3250047,76.0678222 77.1626509,81.3953849 C77.8819861,81.1140324 78.6621694,80.96 79.4772727,80.96 C83.0796755,80.96 86,83.9686465 86,87.68 C86,87.7872723 85.9975603,87.8939575 85.9927349,88 L85.9927349,88" transform="matrix(-1 0 0 1 131 0)"/>
      <g stroke="#FFF" stroke-width="2" transform="translate(89 62)">
        <path stroke-linecap="round" d="M2.8125,7.41928563 L2.8125,6.10606061 C2.8125,2.73377645 5.54076481,0 8.90625,0 L8.90625,0 L8.90625,0 C12.2717352,0 15,2.73377645 15,6.10606061 L15,24.8939394"/>
        <path fill="#BAEEBF" d="M0,8.45454545 L0,8.45454545 C0,6.89810661 1.25919914,5.63636364 2.8125,5.63636364 L2.8125,5.63636364 L2.8125,5.63636364 C4.36580086,5.63636364 5.625,6.89810661 5.625,8.45454545 L5.625,8.45454545"/>
      </g>
    </g>
    <path stroke="#FFF" stroke-linecap="round" stroke-width="2" d="M555.284593,395 C555.098969,394.285606 555,393.534711 555,392.76 C555,387.98826 558.754703,384.12 563.386364,384.12 C564.624031,384.12 565.799077,384.396217 566.856594,384.892079 C568.692628,381.383977 572.291992,379 576.431818,379 C581.839511,379 586.325005,383.067822 587.162651,388.395385 C587.881986,388.114032 588.662169,387.96 589.477273,387.96 C593.079676,387.96 596,390.968646 596,394.68 C596,394.787272 595.99756,394.893958 595.992735,395 L595.992735,395" transform="matrix(-1 0 0 1 1151 0)"/>
    <circle cx="69" cy="62" r="27" stroke="#FFF" stroke-linecap="round" stroke-width="2"/>
    <g stroke="#FFF" stroke-linecap="round" stroke-linejoin="round" stroke-width="2" transform="matrix(-1 0 0 1 722 411)">
      <polyline points="0 8.471 3.185 12.965 6.181 8"/>
      <polyline points="14 .471 17.185 4.965 20.181 0"/>
      <polyline points="27 16.471 30.185 20.965 33.181 16"/>
    </g>
    <g transform="translate(814 436)">
      <path stroke="#FFF" stroke-linecap="round" stroke-width="2" d="M0,80.4315905 L0,7.05128205 C-6.76353751e-17,6.47067501 0.44771525,6 1,6 L53,6 C53.5522847,6 54,6.47067501 54,7.05128205 L54,88" transform="matrix(-1 0 0 1 54 0)"/>
      <rect width="6" height="6" x="39" stroke="#FFF" stroke-linecap="round" stroke-width="2" rx="1" transform="matrix(-1 0 0 1 84 0)"/>
      <path fill="#FFF" fill-rule="nonzero" d="M36,44 L36,40 L2,40 L2,44 L36,44 Z M36,46 L2,46 L2,50 L36,50 L36,46 Z M36,25 L36,21 L2,21 L2,25 L36,25 Z M36,27 L2,27 L2,31 L36,31 L36,27 Z M36,6 L36,2 L2,2 L2,6 L36,6 Z M36,8 L2,8 L2,12 L36,12 L36,8 Z M2,0 L36,0 C37.1045695,-2.22044605e-16 38,0.8954305 38,2 L38,12 C38,13.1045695 37.1045695,14 36,14 L2,14 C0.8954305,14 1.11022302e-16,13.1045695 0,12 L0,2 C-2.22044605e-16,0.8954305 0.8954305,2.22044605e-16 2,0 Z M2,19 L36,19 C37.1045695,19 38,19.8954305 38,21 L38,31 C38,32.1045695 37.1045695,33 36,33 L2,33 C0.8954305,33 1.11022302e-16,32.1045695 0,31 L0,21 C-2.22044605e-16,19.8954305 0.8954305,19 2,19 Z M2,38 L36,38 C37.1045695,38 38,38.8954305 38,40 L38,50 C38,51.1045695 37.1045695,52 36,52 L2,52 C0.8954305,52 1.11022302e-16,51.1045695 0,50 L0,40 C-2.22044605e-16,38.8954305 0.8954305,38 2,38 Z" transform="translate(8 13)"/>
      <path stroke="#FFF" stroke-linecap="round" stroke-width="2" d="M9,88 L9,71.9444444 C9,71.4228422 9.44771525,71 10,71 L10,71 L20,71 C20.5522847,71 21,71.4228422 21,71.9444444 L21,88" transform="matrix(-1 0 0 1 30 0)"/>
      <circle cx="13" cy="80" r="1" fill="#FFF" transform="matrix(-1 0 0 1 26 0)"/>
      <path stroke="#FFF" stroke-linecap="round" stroke-width="2" d="M45.284593,88 C45.0989694,87.2856064 45,86.5347105 45,85.76 C45,80.9882598 48.7547029,77.12 53.3863636,77.12 C54.6240305,77.12 55.7990775,77.3962166 56.8565942,77.8920787 C58.6926275,74.3839773 62.2919918,72 66.4318182,72 C71.8395114,72 76.3250047,76.0678222 77.1626509,81.3953849 C77.8819861,81.1140324 78.6621694,80.96 79.4772727,80.96 C83.0796755,80.96 86,83.9686465 86,87.68 C86,87.7872723 85.9975603,87.8939575 85.9927349,88 L85.9927349,88" transform="matrix(-1 0 0 1 131 0)"/>
    </g>
    <g transform="translate(521 424)">
      <path stroke="#FFF" stroke-linecap="round" stroke-width="2" d="M0,100 L0,7 C-6.76353751e-17,6.44771525 0.44771525,6 1,6 L53,6 C53.5522847,6 54,6.44771525 54,7 L54,90.2880859"/>
      <rect width="6" height="6" x="39" stroke="#FFF" stroke-linecap="round" stroke-width="2" rx="1"/>
      <g stroke="#FFF" stroke-linecap="round" stroke-width="2" transform="rotate(90 -5.5 26.5)">
        <rect width="10" height="12" rx="1"/>
        <path d="M0,6 L10,6"/>
      </g>
      <g stroke="#FFF" stroke-linecap="round" stroke-width="2" transform="rotate(90 6.5 38.5)">
        <rect width="10" height="12" rx="1"/>
        <path d="M0,6 L10,6"/>
      </g>
      <g stroke="#FFF" stroke-linecap="round" stroke-width="2" transform="rotate(90 3 18)">
        <rect width="10" height="12" rx="1"/>
        <path d="M0,6 L10,6"/>
      </g>
      <g stroke="#FFF" stroke-linecap="round" stroke-width="2" transform="rotate(90 15 30)">
        <rect width="10" height="12" rx="1"/>
        <path d="M0,6 L10,6"/>
      </g>
      <g stroke="#FFF" stroke-linecap="round" stroke-width="2" transform="rotate(90 -14 35)">
        <rect width="10" height="12" rx="1"/>
        <path d="M0,6 L10,6"/>
      </g>
      <g stroke="#FFF" stroke-linecap="round" stroke-width="2" transform="rotate(90 -2 47)">
        <rect width="10" height="12" rx="1"/>
        <path d="M0,6 L10,6"/>
      </g>
      <g stroke="#FFF" stroke-linecap="round" stroke-width="2" transform="rotate(90 -22.5 43.5)">
        <rect width="10" height="12" rx="1"/>
        <path d="M0,6 L10,6"/>
      </g>
      <g stroke="#FFF" stroke-linecap="round" stroke-width="2" transform="rotate(90 -10.5 55.5)">
        <rect width="10" height="12" rx="1"/>
        <path d="M0,6 L10,6"/>
      </g>
      <path stroke="#FFF" stroke-linecap="round" stroke-width="2" d="M33,100 L33,83.9444444 C33,83.4228422 33.4477153,83 34,83 L34,83 L44,83 C44.5522847,83 45,83.4228422 45,83.9444444 L45,100"/>
      <circle cx="41" cy="92" r="1" fill="#FFF"/>
    </g>
    <g stroke="#FFF" stroke-width="2" transform="matrix(-1 0 0 1 510 498)">
      <path stroke-linecap="round" d="M2.8125,7.41928563 L2.8125,6.10606061 C2.8125,2.73377645 5.54076481,0 8.90625,0 L8.90625,0 L8.90625,0 C12.2717352,0 15,2.73377645 15,6.10606061 L15,24.8939394"/>
      <path fill="#BAEEBF" d="M0,8.45454545 L0,8.45454545 C0,6.89810661 1.25919914,5.63636364 2.8125,5.63636364 L2.8125,5.63636364 L2.8125,5.63636364 C4.36580086,5.63636364 5.625,6.89810661 5.625,8.45454545 L5.625,8.45454545"/>
    </g>
    <path stroke="#FFF" stroke-linecap="round" stroke-width="2" d="M944.007541,289 C944.00253,288.880631 944,288.760614 944,288.64 C944,284.022899 947.708001,280.28 952.282051,280.28 C954.049101,280.28 955.686898,280.838604 957.031588,281.790413 C958.668775,277.804011 962.561267,275 967.102564,275 C973.121052,275 978,279.924868 978,286 C978,287.040024 977.857011,288.046336 977.589796,289 L977.589796,289"/>
    <circle cx="679" cy="359" r="2" fill="#FFF"/>
    <circle cx="418" cy="393" r="2" fill="#FFF"/>
    <circle cx="356" cy="434" r="2" fill="#FFF"/>
    <circle cx="238" cy="403" r="2" fill="#FFF"/>
    <circle cx="131" cy="432" r="2" fill="#FFF"/>
    <circle cx="892" cy="351" r="2" fill="#FFF"/>
    <circle cx="837" cy="263" r="2" fill="#BAEEBF" stroke="#FFF" stroke-width="2"/>
    <circle cx="1059" cy="213" r="2" fill="#FFF"/>
    <circle cx="1159" cy="424" r="2" fill="#FFF"/>
    <circle cx="162" cy="2" r="2" fill="#FFF"/>
    <circle cx="618" cy="14" r="2" fill="#BAEEBF" stroke="#FFF" stroke-width="2"/>
    <circle cx="869" cy="62" r="2" fill="#FFF"/>
    <circle cx="348" cy="118" r="2" fill="#FFF"/>
    <circle cx="2" cy="154" r="2" fill="#FFF"/>
    <circle cx="131" cy="231" r="2" fill="#FFF"/>
    <g stroke="#FFF" stroke-linecap="round" stroke-width="2" transform="translate(928 76)">
      <circle cx="26" cy="26" r="26"/>
      <ellipse cx="26" cy="26" rx="18.571" ry="26"/>
      <ellipse cx="26" cy="26" rx="9.02" ry="26"/>
      <path d="M26,52 L20,62"/>
      <path d="M32,52 L26,62" transform="matrix(-1 0 0 1 58 0)"/>
      <path d="M33,62 C33,66.6768142 29.8659932,69 26,69 C22.1340068,69 19,66.6768142 19,62 L33,62 Z"/>
    </g>
    <path stroke="#FFF" stroke-linecap="round" stroke-width="2" d="M34.2427938,319 C34.0841241,318.365697 34,317.702857 34,317.020833 C34,312.429966 37.8116298,308.708333 42.5135135,308.708333 C43.6786487,308.708333 44.7891173,308.936863 45.8004662,309.350519 C47.2931492,303.963306 52.3347045,300 58.3243243,300 C63.3511785,300 67.7102548,302.79159 69.8641093,306.873627 C71.3580729,306.026647 73.0940032,305.541667 74.9459459,305.541667 C79.7673482,305.541667 83.8024362,308.828788 84.8286655,313.232964 C85.6468097,312.869268 86.5559294,312.666667 87.5135135,312.666667 C91.0959011,312.666667 94,315.502197 94,319 L94,319"/>
    <path stroke="#BAEEBF"/>
    <g transform="translate(88 435)">
      <polyline stroke="#FFF" stroke-linecap="round" stroke-width="2" points="11.796 83 11.796 13.005 11.796 0"/>
      <circle cx="12" cy="14" r="3" fill="#FFF"/>
      <g stroke="#FFF" stroke-linecap="round" stroke-width="2" transform="translate(0 14)">
        <path d="M11,8 L23.2592515,0.0614596399" transform="matrix(-1 0 0 1 35 0)"/>
        <path d="M1.84741111e-13,8 L12.2592515,0.0614596399"/>
      </g>
    </g>
    <g transform="translate(395 424)">
      <polyline stroke="#FFF" stroke-linecap="round" stroke-width="2" points="13.796 89 13.796 13.945 17.796 0"/>
      <circle cx="14" cy="14" r="3" fill="#FFF"/>
      <g stroke="#FFF" stroke-linecap="round" stroke-width="2" transform="rotate(19 -29.33 14.488)">
        <path d="M11,8 L23.2592515,0.0614596399" transform="matrix(-1 0 0 1 35 0)"/>
        <path d="M1.84741111e-13,8 L12.2592515,0.0614596399"/>
      </g>
    </g>
    <g transform="translate(777 435)">
      <polyline stroke="#FFF" stroke-linecap="round" stroke-width="2" points="12.796 89 12.796 13.945 8.796 0"/>
      <circle cx="13" cy="14" r="3" fill="#FFF"/>
      <g stroke="#FFF" stroke-linecap="round" stroke-width="2" transform="rotate(-15 65.67 7.702)">
        <path d="M11,8 L23.2592515,0.0614596399" transform="matrix(-1 0 0 1 35 0)"/>
        <path d="M1.84741111e-13,8 L12.2592515,0.0614596399"/>
      </g>
    </g>
    <g stroke="#FFF" stroke-linecap="round" stroke-width="2" transform="translate(333 505)">
      <ellipse cx="26.333" cy="13.294" rx="5.333" ry="5.294"/>
      <ellipse cx="5.333" cy="12.706" rx="5.333" ry="5.294"/>
      <path d="M5.33333333 12.7058824L11.7333333 4.23529412M5.33333333 12.7058824L16 12.7058824M20.2666667 5.29411765L16 12.7058824M10.6666667 1.05882353L16 12.7058824M19.2 1.05882353L25.8359375 12.7058824M11.7333333 4.23529412L20.2666667 4.23529412M19.2.529411765L22.3041667.529411765M8.53333333.529411765L13.2057292.529411765"/>
    </g>
    <g stroke="#FFF" stroke-linecap="round" stroke-width="2" transform="matrix(-1 0 0 1 778 505)">
      <ellipse cx="26.333" cy="13.294" rx="5.333" ry="5.294"/>
      <ellipse cx="5.333" cy="12.706" rx="5.333" ry="5.294"/>
      <path d="M5.33333333 12.7058824L11.7333333 4.23529412M5.33333333 12.7058824L16 12.7058824M20.2666667 5.29411765L16 12.7058824M10.6666667 1.05882353L16 12.7058824M19.2 1.05882353L25.8359375 12.7058824M11.7333333 4.23529412L20.2666667 4.23529412M19.2.529411765L22.3041667.529411765M8.53333333.529411765L13.2057292.529411765"/>
    </g>
    <g stroke="#FFF" stroke-linecap="round" stroke-width="2" transform="rotate(49 -294.846 527.105)">
      <path d="M6.52414967,1.94137496 L13.2016508,1.97681451 C14.0879996,1.98151863 14.4090282,2.07468473 14.7327952,2.24859817 C15.0565622,2.42251161 15.3107126,2.67678838 15.4844651,3.00064178 C15.6582176,3.32449517 15.7512241,3.64557001 15.7554877,4.53192109 L15.7911159,11.9386589 C15.7950248,12.75126 15.723535,13.0470377 15.5822903,13.353016 C15.4410456,13.6589942 15.229727,13.9088382 14.9514253,14.0988933 C14.6731236,14.2889483 14.3933073,14.4085229 13.5913211,14.5394958 L5.09136675,15.9276289 C4.00123866,16.1056585 2.97319378,15.3662565 2.79516425,14.2761284 C2.76486242,14.0905812 2.76087417,13.9016883 2.78331729,13.7150274 L3.92300106,4.23620547 C4.02253991,3.40833457 4.13622349,3.11673219 4.32333339,2.82579731 C4.51044329,2.53486244 4.7628539,2.31217637 5.07484184,2.16278848 C5.38682978,2.01340059 5.69032797,1.93694962 6.52414967,1.94137496 Z" transform="rotate(-68 9.29 8.941)"/>
      <path d="M13,17 C18.7501904,22.1969632 15.9797518,21.2153908 15.2268541,28.0755205 C14.9820418,30.3061604 20,32.4963016 20,37"/>
    </g>
    <g stroke="#FFF" stroke-linecap="round" stroke-linejoin="round" stroke-width="2" transform="translate(1047 100)">
      <polyline points="0 .471 3.185 4.965 6.181 0"/>
      <polyline points="22 11.471 25.185 15.965 28.181 11"/>
    </g>
  </g>
</svg>
