<svg xmlns="http://www.w3.org/2000/svg" width="109" height="109" viewBox="0 0 109 109">
  <g fill="none" fill-rule="evenodd" transform="translate(-22 -22)">
    <path fill="#1F2145" d="M43.590831,33.360807 L44.2596392,34.1583868 L42.8697267,35.3225164 L46.4165601,39.5543948 L45.4118951,40.3961232 L41.8650618,36.1642449 L40.4827032,37.3225654 L39.813895,36.5244047 L43.590831,33.360807 Z M47.94343,31.6532426 L48.8435029,33.0962056 L50.8156445,31.866434 L51.3473209,32.7180378 L49.3751793,33.9478095 L50.3101162,35.4459583 L52.5187521,34.0686373 L53.0748333,34.9597425 L49.7534539,37.0312426 L46.279835,31.4632873 L49.6012144,29.3917872 L50.1520659,30.2759216 L47.94343,31.6532426 Z M60.4463082,31.5517007 L59.2394319,32.0640572 L54.7907824,29.1060991 L56.5357268,33.2119215 L55.3288505,33.7248589 L52.7628584,27.6852104 L53.9697347,27.1728539 L58.4329108,30.1645044 L56.6734397,26.0244087 L57.8797349,25.5120522 L60.4463082,31.5517007 Z M66.4584348,28.1480158 C66.7524547,27.6995587 66.8250881,27.1477008 66.6751728,26.4959276 C66.5240954,25.8371836 66.217873,25.3712994 65.7570868,25.0953705 C65.2963006,24.8200225 64.7216253,24.7607704 64.0330608,24.9181951 L63.1451904,25.1226729 L64.0958161,29.2627686 L64.9836866,29.0582908 C65.672251,28.9008661 66.1638338,28.5964729 66.4584348,28.1480158 Z M67.9570067,27.9661931 C67.8024429,28.5104993 67.5031934,28.9746408 67.0610013,29.3591985 C66.6182282,29.7437563 66.0493636,30.0156189 65.3549884,30.1747864 L63.0806919,30.6970182 L61.6117544,24.3012761 L63.8860509,23.7790443 C64.580426,23.6198769 65.2103027,23.6134869 65.7750999,23.7604554 C66.3398971,23.9074239 66.8099804,24.1909045 67.1859307,24.6097356 C67.5624622,25.0285667 67.8239424,25.5583502 67.9709523,26.1985053 C68.1168002,26.8322705 68.1121516,27.421887 67.9570067,27.9661931 Z M72.2200053,23.5132231 L72.3385429,25.2100408 L74.6570005,25.0485497 L74.7267286,26.0494456 L72.408271,26.2115175 L72.5314572,27.9728154 L75.1276649,27.7921546 L75.2014604,28.8395227 L71.2966897,29.1119662 L70.839971,22.5657703 L74.7447417,22.2933268 L74.816794,23.3319814 L72.2200053,23.5132231 Z M79.3732895,25.4800445 L80.4488446,25.5596282 C81.1960969,25.614814 81.5947089,25.3121635 81.6440996,24.650515 C81.6667612,24.3356656 81.5941278,24.0835537 81.4250373,23.8941793 C81.2553657,23.704224 80.9793588,23.5955951 80.5958546,23.5671309 L79.5208805,23.4869663 L79.3732895,25.4800445 Z M81.2222449,29.0839667 L79.8811421,26.4216882 L79.3064668,26.3792823 L79.11762,28.9282847 L77.8102191,28.8318548 L78.2954101,22.2874016 L80.7893499,22.4721287 C81.5493856,22.5284763 82.115345,22.7573521 82.4860657,23.1570134 C82.8573676,23.5566746 83.0206474,24.0608984 82.9759053,24.6661994 C82.9392981,25.1599669 82.7713697,25.5642754 82.4715391,25.8773821 C82.1711274,26.1904888 81.7579887,26.3839295 81.2297988,26.4565424 L82.6685208,29.1914338 L81.2222449,29.0839667 Z M87.2415186,26.1681822 L88.3914503,26.4365594 C88.7104561,26.5114958 88.9701931,26.4969733 89.1694991,26.3947343 C89.3682241,26.2913336 89.4989642,26.1077683 89.5611383,25.8417147 C89.6238936,25.576242 89.5896106,25.3520135 89.4606137,25.169029 C89.3321979,24.9866255 89.0980279,24.8547605 88.7598468,24.7763386 L87.6285093,24.5114468 L87.2415186,26.1681822 Z M88.6599033,29.0814107 C88.8760603,28.9762673 89.0172596,28.7816648 89.0835012,28.4981841 C89.1491618,28.2141225 89.1084871,27.9736287 88.9608961,27.7778644 C88.8121429,27.5803574 88.5692569,27.4426834 88.2310758,27.3636806 L87.0276859,27.0819426 L86.6174526,28.8380124 L87.8301395,29.121493 C88.1683206,29.2004958 88.4443274,29.1871351 88.6599033,29.0814107 Z M90.234014,27.8841696 C90.3996181,28.2245788 90.4373875,28.588805 90.346741,28.9745246 C90.2212305,29.511279 89.9423183,29.8935131 89.5105855,30.1206462 C89.0788527,30.3471984 88.5221904,30.3808907 87.8400177,30.2217233 L85.0973811,29.5804064 L86.5913046,23.1904734 L89.2799019,23.8190104 C89.9254674,23.9700452 90.3885778,24.2273852 90.6692332,24.5927732 C90.9504697,24.9569994 91.0306569,25.3961621 90.9103761,25.9090994 C90.8174053,26.307018 90.6372745,26.6085066 90.3699837,26.8129845 C90.1026928,27.0180433 89.7906598,27.1202822 89.4338846,27.1197013 C89.8017001,27.2887441 90.0684099,27.5425987 90.234014,27.8841696 Z M95.6142302,26.8823443 L94.9866777,28.4635623 L97.1470851,29.3203942 L96.7763643,30.2539053 L94.6159569,29.3964925 L93.9645808,31.0375435 L96.383563,31.9983571 L95.9959912,32.9736932 L92.3579303,31.5307301 L94.7798179,25.4312486 L98.4178788,26.8753735 L98.0337934,27.842577 L95.6142302,26.8823443 Z M102.191503,29.9496864 L101.353604,31.4298273 L103.376298,32.5747871 L102.881229,33.4478843 L100.859116,32.3035054 L99.9886774,33.8399939 L102.253677,35.1220468 L101.736527,36.0363881 L98.3303119,34.108371 L101.563369,28.3980945 L104.969584,30.3255307 L104.456502,31.2311585 L102.191503,29.9496864 Z M114.658355,38.7494956 C114.764109,39.4256667 114.632207,40.0878961 114.263229,40.7356029 L113.259145,39.7957019 C113.396277,39.4396083 113.424749,39.0852575 113.345143,38.7309067 C113.265537,38.375394 113.072041,38.0547356 112.764076,37.7671886 C112.51015,37.5290184 112.223103,37.3797263 111.90061,37.3152461 C111.578118,37.2513467 111.250396,37.2844582 110.916864,37.4134187 C110.583331,37.54296 110.268393,37.7666077 109.97263,38.0831998 C109.680353,38.3951447 109.480466,38.7216122 109.372969,39.0631832 C109.266633,39.4035924 109.255012,39.7329644 109.340429,40.0501374 C109.425265,40.3678913 109.594355,40.6449821 109.848281,40.8819905 C110.156247,41.1695375 110.489198,41.3414848 110.848298,41.3978324 C111.207978,41.4535991 111.560105,41.4013178 111.90584,41.2409886 L112.910505,42.1808896 C112.288182,42.591588 111.636225,42.7664398 110.954633,42.7066068 C110.273041,42.6450311 109.633287,42.3354098 109.03595,41.777162 C108.57865,41.3496174 108.271265,40.8680488 108.113215,40.3347799 C107.955165,39.80093 107.953422,39.2583666 108.109148,38.7070897 C108.26313,38.1563936 108.561218,37.6457799 109.001667,37.1746675 C109.446183,36.7000698 109.938347,36.3660506 110.478158,36.1755144 C111.017388,35.9843973 111.557781,35.9489622 112.099335,36.0692091 C112.640309,36.189456 113.14177,36.4648041 113.603137,36.8975768 C114.201055,37.4558246 114.552019,38.0739054 114.658355,38.7494956 Z M118.171951,43.4789755 L116.827943,44.5228582 L118.255044,46.3573498 L117.462468,46.9736879 L116.035948,45.1386153 L114.641387,46.2231612 L116.239322,48.2772343 L115.409558,48.9220366 L113.006846,45.8333753 L118.188802,41.8053939 L120.591514,44.895217 L119.769885,45.5336294 L118.171951,43.4789755 Z M120.524052,50.518997 L121.055729,51.4571554 C121.425287,52.1095095 121.898857,52.2727432 122.475275,51.9451139 C122.750701,51.7900128 122.920373,51.5890204 122.983709,51.3427175 C123.047627,51.0964146 122.983709,50.8059631 122.794862,50.4725248 L122.263186,49.5343664 L120.524052,50.518997 Z M118.554816,54.0590199 L120.023754,51.465288 L119.739031,50.9639687 L117.514706,52.2233664 L116.86914,51.0830539 L122.579868,47.8485859 L123.812311,50.0240677 C124.188261,50.686878 124.313191,51.2840463 124.186518,51.8149916 C124.059845,52.3465179 123.732124,52.7612826 123.203934,53.0604477 C122.772201,53.3055887 122.342792,53.3892388 121.916289,53.3143023 C121.488624,53.2399467 121.098147,53.0035192 120.744858,52.6056006 L119.27011,55.3207413 L118.554816,54.0590199 Z M128.01267,59.3896763 L127.039964,59.7626161 L126.390912,58.0704456 L121.235104,60.0484203 L120.765021,58.8244577 L125.920829,56.846483 L125.275263,55.163607 L126.246807,54.7906673 L128.01267,59.3896763 Z M129.192934,63.697653 L122.833155,65.320696 L122.5095,64.0502611 L128.868698,62.4272181 L129.192934,63.697653 Z M130.506029,71.2669934 L129.474635,71.4081528 L129.101009,68.6732615 L127.360132,68.9114317 L127.659963,71.1031787 L126.664595,71.2385291 L126.364764,69.047363 L123.6291,69.4208837 L123.451294,68.1231463 L129.954596,67.2337838 L130.506029,71.2669934 Z M130.712598,75.8688489 L124.150608,76.0222073 L124.119812,74.712271 L130.681802,74.5583317 L130.712598,75.8688489 Z M129.510719,80.6839539 L127.816328,80.5340809 L127.611792,82.8495603 L126.612357,82.761263 L126.815149,80.4469454 L125.056259,80.2912634 L124.8279,82.8838335 L123.781979,82.7920509 L124.124228,78.8941917 L130.662394,79.4692857 L130.320146,83.3671448 L129.28236,83.276524 L129.510719,80.6839539 Z M124.156303,89.5121111 C124.423593,89.9774144 124.882055,90.2916829 125.531688,90.452593 C126.186551,90.6158268 126.742051,90.554832 127.196445,90.2690277 C127.65084,89.9832234 127.964035,89.4975885 128.134288,88.8115421 L128.354512,87.9274077 L124.23126,86.901533 L124.011617,87.7850864 C123.840783,88.470552 123.889012,89.0462269 124.156303,89.5121111 Z M123.639734,90.9300953 C123.224271,90.5455375 122.94594,90.0691971 122.803578,89.500493 C122.660636,88.9323699 122.675163,88.3020901 122.847739,87.6108155 L123.411956,85.3470365 L129.781032,86.9323208 L129.216816,89.1960998 C129.04482,89.8873744 128.765326,90.4514312 128.378917,90.8882703 C127.992507,91.3251093 127.527073,91.6167227 126.982613,91.7619484 C126.438734,91.9077551 125.847789,91.9013651 125.210358,91.7427786 C124.578738,91.5853539 124.055197,91.315234 123.639734,90.9300953 Z M109.281218,119.738353 L108.615315,118.93845 L110.008714,117.778967 L106.474083,113.536633 L107.481072,112.69839 L111.015122,116.940724 L112.401548,115.78647 L113.068032,116.586373 L109.281218,119.738353 Z M104.939078,121.423204 L104.042492,119.977918 L102.068026,121.20188 L101.538093,120.349115 L103.513721,119.124571 L102.582851,117.623518 L100.370729,118.99503 L99.816972,118.102763 L103.143581,116.040557 L106.602092,121.617226 L103.276064,123.679432 L102.726956,122.794716 L104.939078,121.423204 Z M92.4188843,121.498083 L93.6263416,120.989212 L98.0662751,123.96053 L96.3341142,119.84948 L97.5421526,119.340609 L100.090132,125.387809 L98.8820932,125.89668 L94.4276331,122.890507 L96.1743207,127.036412 L94.9668633,127.545283 L92.4188843,121.498083 Z M86.3925796,124.884805 C86.0973976,125.332681 86.023021,125.883377 86.1711931,126.535732 C86.3199462,127.194476 86.6244254,127.662102 87.0846305,127.939774 C87.5442545,128.216284 88.1189299,128.277279 88.8080754,128.121016 L89.697108,127.920604 L88.7586847,123.777604 L87.8702332,123.978016 C87.1810876,124.134279 86.6889238,124.436929 86.3925796,124.884805 Z M84.8934266,125.061981 C85.0497336,124.517675 85.3501453,124.054695 85.7946616,123.671299 C86.2380158,123.288484 86.8080426,123.018364 87.5024177,122.860939 L89.7790385,122.345678 L91.2276387,128.745487 L88.951599,129.260748 C88.2566428,129.418172 87.6267661,129.422819 87.0619689,129.274108 C86.4983338,129.125397 86.0288316,128.840755 85.6540434,128.420762 C85.2792551,128.000188 85.0195182,127.469243 84.8742514,126.829088 C84.7307278,126.194742 84.7365385,125.605125 84.8934266,125.061981 Z M80.6341469,129.500254 L80.5202578,127.802855 L78.2012191,127.958537 L78.1338153,126.95648 L80.452854,126.801379 L80.3348974,125.0395 L77.7381086,125.21319 L77.6677995,124.165241 L81.5725702,123.903834 L82.0112758,130.451192 L78.105343,130.712598 L78.0361961,129.673944 L80.6341469,129.500254 Z M73.4868477,127.513624 L72.4112925,127.431135 C71.6640403,127.373626 71.2642662,127.675115 71.2137133,128.336763 C71.1893085,128.651613 71.2613608,128.904305 71.4304513,129.094261 C71.5989608,129.284216 71.8749676,129.394007 72.2584719,129.423633 L73.333446,129.506702 L73.4868477,127.513624 Z M71.6477704,123.904473 L72.9813193,126.570818 L73.5559947,126.614967 L73.7518143,124.065964 L75.0592152,124.167041 L74.55543,130.709752 L72.0620712,130.518054 C71.3020355,130.459383 70.7372383,130.229926 70.3670986,129.827941 C69.9969589,129.427118 69.8348412,128.923475 69.8813265,128.318174 C69.919677,127.823826 70.0887675,127.420679 70.3897602,127.108153 C70.690753,126.795628 71.1044727,126.60393 71.6320816,126.532479 L70.2014945,123.793521 L71.6477704,123.904473 Z M64.2124944,123.886349 C63.9963374,123.991493 63.8551381,124.185514 63.7883154,124.468995 C63.7209116,124.751895 63.7615863,124.992388 63.9091774,125.189895 C64.0561873,125.387403 64.2990734,125.525657 64.6366733,125.605822 L65.8400632,125.889884 L66.2555262,124.135557 L65.0428392,123.849171 C64.7052392,123.769007 64.4286513,123.781206 64.2124944,123.886349 Z M65.6239063,126.803644 L64.4751367,126.532362 C64.1555498,126.456264 63.8958128,126.469625 63.6965068,126.572445 C63.4972008,126.674684 63.3658796,126.858249 63.3031244,127.123722 C63.2403692,127.389194 63.2729089,127.613423 63.4019058,127.796407 C63.5303216,127.979973 63.7639106,128.111257 64.1015105,128.191421 L65.2322671,128.458637 L65.6239063,126.803644 Z M62.6354783,125.080105 C62.4710364,124.738534 62.4344291,124.374889 62.5262377,123.989169 C62.6529104,123.451834 62.9329847,123.071342 63.3652986,122.845371 C63.7976125,122.6194 64.3542747,122.58745 65.0358664,122.748941 L67.7773408,123.397229 L66.2659854,129.782515 L63.5791313,129.147588 C62.9335657,128.994229 62.4710364,128.735727 62.190962,128.370339 C61.9114688,128.004371 61.8324437,127.565208 61.9538867,127.052851 C62.0474385,126.655514 62.2287314,126.354025 62.4966033,126.149547 C62.7650563,125.946231 63.0770893,125.844573 63.4332834,125.846316 C63.066049,125.676692 62.7999203,125.421095 62.6354783,125.080105 Z M57.2552622,126.068163 L57.8868821,124.488687 L55.7293801,123.626047 L56.1024251,122.693697 L58.2599271,123.556919 L58.9165329,121.91703 L56.4992939,120.950407 L56.889771,119.975652 L60.5237644,121.429071 L58.085607,127.521582 L54.4516136,126.068163 L54.8380232,125.10154 L57.2552622,126.068163 Z M50.6694481,122.974157 L51.5119953,121.49634 L49.4927872,120.346152 L49.9901807,119.473636 L52.0093887,120.624405 L52.8838946,119.089659 L50.6223816,117.801216 L51.1424366,116.888617 L54.5434222,118.82651 L51.292933,124.527492 L47.8925286,122.589599 L48.407935,121.685133 L50.6694481,122.974157 Z M38.2448977,114.152274 C38.1408867,113.475522 38.2745322,112.813873 38.6446719,112.167328 L39.6470126,113.110134 C39.5087186,113.464485 39.4790842,113.819416 39.5575282,114.174348 C39.6365534,114.52928 39.8294676,114.850519 40.136271,115.139809 C40.3890352,115.377979 40.6766634,115.529014 40.9985746,115.593494 C41.3210668,115.658555 41.6487886,115.626606 41.9823211,115.497064 C42.3164347,115.369266 42.6319541,115.14678 42.9288794,114.831349 C43.2217372,114.519404 43.4227864,114.193518 43.5302838,113.851947 C43.6383622,113.511538 43.6505647,113.182747 43.5657289,112.864993 C43.4820552,112.547239 43.3135458,112.270729 43.0602005,112.032559 C42.7533971,111.74385 42.4204457,111.571322 42.0613462,111.513812 C41.7022468,111.456884 41.3495391,111.508003 41.0038042,111.668332 L40.0014635,110.725527 C40.6249484,110.31599 41.2774868,110.142881 41.9590784,110.205619 C42.640089,110.267775 43.2792628,110.579139 43.8748565,111.13913 C44.3309942,111.568417 44.6372165,112.049986 44.7941046,112.584417 C44.9509927,113.118847 44.9509927,113.661411 44.7941046,114.212107 C44.6377976,114.762222 44.3391291,115.272836 43.8975182,115.741043 C43.4512587,116.215641 42.9585138,116.546756 42.4181214,116.737292 C41.8783101,116.926666 41.3379177,116.96094 40.7969443,116.839531 C40.2559709,116.71696 39.7556721,116.43987 39.2948859,116.006516 C38.6987111,115.446526 38.3489088,114.827864 38.2448977,114.152274 Z M34.7309528,109.397815 L36.0772852,108.357418 L34.6559951,106.51886 L35.4503138,105.905426 L36.8716038,107.743403 L38.2696512,106.664085 L36.6781085,104.604784 L37.5090344,103.962887 L39.9024497,107.0591 L34.7082912,111.071397 L32.315457,107.975184 L33.1394101,107.338514 L34.7309528,109.397815 Z M32.4089507,102.365694 L31.8795986,101.426374 C31.5117831,100.772858 31.0387945,100.609624 30.4606328,100.934349 C30.185207,101.08945 30.0155354,101.289861 29.9516181,101.535583 C29.8871196,101.781305 29.9492938,102.071757 30.1381406,102.406357 L30.6669116,103.345677 L32.4089507,102.365694 Z M34.386903,98.8314798 L32.9121548,101.421726 L33.1945533,101.923046 L35.4223645,100.669457 L36.0656057,101.812093 L30.3461626,105.030877 L29.118949,102.85249 C28.7453228,102.187937 28.6221366,101.590769 28.7499714,101.059824 C28.8778061,100.529459 29.2066901,100.114695 29.7354611,99.8172722 C30.1683561,99.5738739 30.5971836,99.4908048 31.0242679,99.5669031 C31.4513522,99.6430013 31.8412482,99.8800098 32.1939559,100.27909 L33.6756769,97.5674349 L34.386903,98.8314798 Z M24.9373579,93.4541769 L25.9106453,93.0841417 L26.5550486,94.7780549 L31.7166674,92.8157645 L32.1826832,94.0414699 L27.0204834,96.0031793 L27.6614003,97.6889598 L26.6886941,98.058995 L24.9373579,93.4541769 Z M23.7695874,89.1410883 L30.1345961,87.537796 L30.454764,88.8088118 L24.0897554,90.4121041 L23.7695874,89.1410883 Z M22.4811874,81.5859801 L23.5131625,81.4477251 L23.8798159,84.1837783 L25.6212739,83.9502553 L25.327835,81.7579273 L26.3226218,81.6243197 L26.6166417,83.8172285 L29.3534676,83.4506787 L29.5272067,84.7489969 L23.0215798,85.6203514 L22.4811874,81.5859801 Z M22.2874016,76.9801744 L28.849973,76.8454049 L28.8767021,78.1547603 L22.3147117,78.2901107 L22.2874016,76.9801744 Z M23.5022966,72.1707042 L25.1966882,72.3246435 L25.4070344,70.0103259 L26.4070509,70.1009468 L26.1967046,72.4152644 L27.9561756,72.5750127 L28.1915078,69.9830235 L29.2374285,70.0777107 L28.8835587,73.9749889 L22.3465542,73.381887 L22.7010051,69.4846087 L23.7376288,69.578715 L23.5022966,72.1707042 Z M28.8811763,63.3601484 C28.6150476,62.8936832 28.1571667,62.5794147 27.5086959,62.4156001 C26.8532523,62.2506236 26.2983332,62.3104566 25.8427766,62.59568 C25.3878011,62.8803225 25.0734438,63.3647956 24.9008669,64.0496802 L24.6788993,64.9332337 L28.7986648,65.9707264 L29.0212135,65.0877539 C29.1937904,64.4028692 29.147305,63.8266135 28.8811763,63.3601484 Z M29.4012313,61.9433259 C29.8155322,62.3290455 30.0927011,62.8065478 30.2339004,63.3746709 C30.3750997,63.9445368 30.3582488,64.5742356 30.1845097,65.2649293 L29.6144829,67.5275465 L23.2494743,65.9248351 L23.8195011,63.6627988 C23.9932402,62.9715242 24.2744766,62.4080483 24.6626294,61.9723711 C25.0502011,61.5361129 25.5162169,61.2462423 26.0606768,61.1021784 C26.6051366,60.9581144 27.1960818,60.9662471 27.8329313,61.1265763 C28.4639702,61.2863246 28.9869305,61.5581872 29.4012313,61.9433259 Z M120.080872,104.384157 C120.080872,105.025474 119.560236,105.545963 118.918738,105.545963 C118.27724,105.545963 117.756604,105.025474 117.756604,104.384157 C117.756604,103.74284 118.27724,103.222351 118.918738,103.222351 C119.560236,103.222351 120.080872,103.74284 120.080872,104.384157 Z M35.2450809,49.1983722 C35.2450809,49.8396891 34.7244448,50.3601782 34.0829468,50.3601782 C33.4414487,50.3601782 32.9208127,49.8396891 32.9208127,49.1983722 C32.9208127,48.5570552 33.4414487,48.0365661 34.0829468,48.0365661 C34.7244448,48.0365661 35.2450809,48.5570552 35.2450809,49.1983722 Z" transform="rotate(-49 76.5 76.5)"/>
    <g stroke="#1F2145" stroke-linecap="round" stroke-linejoin="round" stroke-width="1.52" transform="translate(53.284 51.761)">
      <polygon points="23.351 30.147 19.526 31.886 16.947 28.568 12.751 28.331 12.01 24.194 8.405 22.034 9.671 18.027 7.483 14.439 10.466 11.479 10.196 7.285 14.213 6.05 15.923 2.212 20.053 2.985 23.351 .381 26.649 2.985 30.78 2.212 32.49 6.05 36.507 7.285 36.237 11.479 39.22 14.439 37.032 18.027 38.298 22.034 34.693 24.194 33.951 28.331 29.756 28.568 27.177 31.886"/>
      <polyline points="15.17 31.953 15.35 47.976 9.742 44.17 3.932 47.976 4.423 28.538" transform="rotate(26 9.64 38.257)"/>
      <polyline points="42.315 31.955 42.495 47.977 36.887 44.171 31.077 47.977 31.175 28.512" transform="scale(-1 1) rotate(26 0 -121.093)"/>
    </g>
  </g>
</svg>
